<?xml version="1.0" standalone="no"?>
<!DOCTYPE svg PUBLIC "-//W3C//DTD SVG 1.1//EN" "http://www.w3.org/Graphics/SVG/1.1/DTD/svg11.dtd" >
<svg>
<metadata>
Created by FontForge 20090622 at Fri Dec  2 15:34:19 2016
 By deploy user
Copyright &#194;&#169; 2015 The Entente (AS&#38;EH). Published by Colophon Foundry. All rights reserved.
</metadata>
<defs>
<font id="BasisGrotesque-OffWhite" horiz-adv-x="806" >
  <font-face 
    font-family="Basis Grotesque"
    font-weight="350"
    font-stretch="normal"
    units-per-em="1024"
    panose-1="2 0 5 3 3 0 0 2 0 4"
    ascent="819"
    descent="-205"
    x-height="508"
    cap-height="717"
    bbox="-27 -223 1112 956"
    underline-thickness="51"
    underline-position="-252"
    unicode-range="U+000D-U+FB04"
  />
<missing-glyph horiz-adv-x="374" 
d="M34 0v682h272v-682h-272zM68 34h204v614h-204v-614z" />
    <glyph glyph-name="uniFB01" unicode="fi" horiz-adv-x="544" 
d="M25 453v55h80v101q0 73 39.5 116t111.5 43q27 0 51 -8l-12 -59q-18 6 -36 6q-38 0 -61 -25.5t-23 -68.5v-105h287v-508h-70v453h-217v-453h-70v453h-80zM384 600v92h86v-92h-86z" />
    <glyph glyph-name="uniFB02" unicode="fl" horiz-adv-x="544" 
d="M27 453v55h81v101q0 73 39.5 116t110.5 43q27 0 51 -8l-12 -59q-18 6 -36 6q-38 0 -61 -25.5t-23 -68.5v-105h122v-55h-122v-453h-69v453h-81zM392 0v717h70v-717h-70z" />
    <glyph glyph-name="uniFB03" unicode="ffi" horiz-adv-x="815" 
d="M177 453v-453h-69v453h-81v55h81v101q0 73 39.5 116t110.5 43q27 0 51 -8l-12 -59q-18 6 -36 6q-38 0 -61 -25.5t-23 -68.5v-105h201v101q0 73 39.5 116t110.5 43q28 0 52 -8l-13 -59q-18 6 -36 6q-38 0 -61 -25.5t-23 -68.5v-105h287v-508h-69v453h-218v-453h-69v453
h-201zM654 600v92h86v-92h-86z" />
    <glyph glyph-name="uniFB04" unicode="ffl" horiz-adv-x="815" 
d="M26 453v55h80v101q0 73 39.5 116t111.5 43q27 0 51 -8l-12 -59q-18 6 -36 6q-38 0 -61 -25.5t-23 -68.5v-105h201v101q0 73 39.5 116t110.5 43q28 0 52 -8l-13 -59q-18 6 -36 6q-38 0 -61 -25.5t-23 -68.5v-105h122v-55h-122v-453h-69v453h-201v-453h-70v453h-80zM663 0
v717h69v-717h-69z" />
    <glyph glyph-name=".notdef" horiz-adv-x="374" 
d="M34 0v682h272v-682h-272zM68 34h204v614h-204v-614z" />
    <glyph glyph-name="glyph1" horiz-adv-x="0" 
 />
    <glyph glyph-name="glyph2" horiz-adv-x="341" 
 />
    <glyph glyph-name="glyph3" horiz-adv-x="0" 
 />
    <glyph glyph-name="glyph3" horiz-adv-x="0" 
 />
    <glyph glyph-name="uni000D" unicode="&#xd;" horiz-adv-x="295" 
 />
    <glyph glyph-name="space" unicode=" " horiz-adv-x="282" 
 />
    <glyph glyph-name="exclam" unicode="!" horiz-adv-x="274" 
d="M98 490v227h78v-227l-12 -304h-53zM92 0v95h90v-95h-90z" />
    <glyph glyph-name="quotedbl" unicode="&#x22;" horiz-adv-x="352" 
d="M210 663v54h76v-54l-15 -158h-47zM67 663v54h75v-54l-14 -158h-47z" />
    <glyph glyph-name="numbersign" unicode="#" horiz-adv-x="674" 
d="M361 0l43 231h-174l-43 -231h-67l43 231h-107v56h117l27 143h-123v55h133l43 232h68l-43 -232h174l43 232h67l-43 -232h107v-55h-117l-27 -143h123v-56h-133l-43 -231h-68zM267 430l-26 -143h174l26 143h-174z" />
    <glyph glyph-name="dollar" unicode="$" horiz-adv-x="670" 
d="M304 -102v90q-103 10 -167.5 70.5t-77.5 147.5l68 37q12 -82 58.5 -130t118.5 -58v291q-210 47 -210 199q0 76 59 126.5t151 57.5v90h70v-91q79 -10 136.5 -55t80.5 -113l-62 -35q-42 118 -155 140v-268q227 -43 227 -197q0 -85 -63 -144.5t-164 -68.5v-89h-70zM525 194
q0 54 -37.5 85.5t-113.5 50.5v-276q71 8 111 47.5t40 92.5zM166 546q0 -46 35.5 -80t102.5 -52v252q-62 -6 -100 -38t-38 -82z" />
    <glyph glyph-name="percent" unicode="%" horiz-adv-x="906" 
d="M254 2l-47 32l445 681l47 -32zM53 552q0 75 49 127t125 52t125 -52t49 -127t-49 -127t-125 -52t-125 52t-49 127zM117 552q0 -54 30 -87t80 -33t80.5 33t30.5 87t-30.5 87t-80.5 33t-80 -33t-30 -87zM505 165q0 75 49 127t125 52t125 -52t49 -127t-49 -127t-125 -52
t-125 52t-49 127zM568 165q0 -54 30.5 -87t80.5 -33t80.5 33t30.5 87t-30.5 87t-80.5 33t-80.5 -33t-30.5 -87z" />
    <glyph glyph-name="ampersand" unicode="&#x26;" horiz-adv-x="655" 
d="M610 0h-85l-49 63q-77 -77 -189 -77q-97 0 -159.5 61.5t-62.5 153.5q0 133 141 216q-51 69 -51 151q0 69 47 116t116 47q71 0 114 -38t43 -101q0 -59 -36.5 -101.5t-119.5 -81.5l-14 -8l173 -229q38 63 56 159l58 -31q-25 -109 -73 -182zM291 49q83 0 146 66l-192 253
q-107 -70 -107 -170q0 -65 44 -107t109 -42zM222 569q0 -59 46 -120q34 16 54 27t42.5 27.5t33 36.5t10.5 44q0 39 -25.5 62.5t-64.5 23.5q-41 0 -68.5 -29t-27.5 -72z" />
    <glyph glyph-name="quotesingle" unicode="'" horiz-adv-x="208" 
d="M67 663v54h75v-54l-14 -158h-47z" />
    <glyph glyph-name="parenleft" unicode="(" horiz-adv-x="358" 
d="M259 -152h-68q-47 80 -77 192.5t-30 242.5q0 252 107 434h68q-99 -193 -99 -434q0 -242 99 -435z" />
    <glyph glyph-name="parenright" unicode=")" horiz-adv-x="358" 
d="M168 -152h-68q100 195 100 435q0 239 -100 434h68q107 -182 107 -434q0 -130 -30 -242.5t-77 -192.5z" />
    <glyph glyph-name="asterisk" unicode="*" horiz-adv-x="444" 
d="M260 717l-15 -119l96 72l38 -66l-112 -44l112 -44l-38 -65l-96 71l15 -119h-76l16 119l-97 -71l-37 65l111 44l-111 44l37 66l97 -72l-16 119h76z" />
    <glyph glyph-name="plus" unicode="+" horiz-adv-x="518" 
d="M53 346v55h178v179h56v-179h178v-55h-178v-178h-56v178h-178z" />
    <glyph glyph-name="comma" unicode="," horiz-adv-x="194" 
d="M52 0v94h90v-94l-69 -123l-20 7l32 116h-33z" />
    <glyph glyph-name="hyphen" unicode="-" horiz-adv-x="466" 
d="M50 291v55h367v-55h-367z" />
    <glyph glyph-name="period" unicode="." horiz-adv-x="194" 
d="M52 0v94h90v-94h-90z" />
    <glyph glyph-name="slash" unicode="/" horiz-adv-x="507" 
d="M10 -31l410 779h78l-410 -779h-78z" />
    <glyph glyph-name="zero" unicode="0" horiz-adv-x="733" 
d="M676 358q0 -166 -86.5 -269t-222.5 -103t-223 103t-87 269t87 269.5t223 103.5t222.5 -103.5t86.5 -269.5zM367 51q104 0 168.5 82.5t64.5 224.5t-64.5 225t-168.5 83t-169 -83t-65 -225t65 -224.5t169 -82.5z" />
    <glyph glyph-name="one" unicode="1" horiz-adv-x="374" 
d="M59 561v66q59 0 95 21.5t62 68.5h68v-717h-76v610q-48 -49 -149 -49z" />
    <glyph glyph-name="two" unicode="2" horiz-adv-x="599" 
d="M59 51l281 282q57 57 78.5 98t21.5 91q0 65 -42 104.5t-111 39.5q-63 0 -107 -41.5t-44 -106.5q0 -27 8 -48l-67 -11q-12 32 -12 66q0 82 63 144t161 62q102 0 163.5 -57t61.5 -145q0 -63 -28.5 -119.5t-99.5 -127.5l-210 -211h343v-71h-460v51z" />
    <glyph glyph-name="three" unicode="3" horiz-adv-x="604" 
d="M75 248l70 -19q-4 -14 -4 -33q0 -61 46.5 -101t117.5 -40q74 0 119 40.5t45 113.5q0 72 -57 107.5t-149 35.5v66q91 0 130 37t39 93t-38 87t-99 31q-60 0 -99 -35.5t-39 -90.5q0 -15 4 -27l-66 -11q-8 24 -8 50q0 74 59.5 126.5t149.5 52.5q97 0 154.5 -49t57.5 -124
q0 -54 -29.5 -98t-90.5 -67q69 -19 113 -65t44 -114q0 -104 -69 -166t-171 -62q-108 0 -175 62t-67 141q0 32 12 59z" />
    <glyph glyph-name="four" unicode="4" horiz-adv-x="606" 
d="M56 147v68l352 502h75v-502h82v-68h-82v-147h-77v147h-350zM406 601l-269 -386h269v386z" />
    <glyph glyph-name="five" unicode="5" horiz-adv-x="611" 
d="M67 330l33 387h408v-68h-345l-24 -254q31 44 79.5 69t100.5 25q109 0 171.5 -68.5t62.5 -180.5q0 -110 -70.5 -182t-184.5 -72q-106 0 -171 55.5t-65 136.5q0 28 10 51l70 -16q-4 -16 -4 -29q0 -60 43.5 -94.5t116.5 -34.5q79 0 129 48.5t50 136.5q0 83 -48.5 133
t-122.5 50q-59 0 -105 -32t-71 -79z" />
    <glyph glyph-name="six" unicode="6" horiz-adv-x="621" 
d="M530 509l-74 16q8 19 8 40q0 43 -34.5 71t-95.5 28q-86 0 -139.5 -85t-58.5 -224q30 54 84 84t114 30q101 0 167.5 -67.5t66.5 -171.5q0 -102 -71.5 -173t-178.5 -71q-121 0 -191 87t-70 243q0 132 42 236q33 84 96.5 131.5t137.5 47.5q95 0 151 -47t56 -124
q0 -23 -10 -51zM318 403q-72 0 -122 -48t-50 -128t50 -128t122 -48t122 48t50 128t-50 128t-122 48z" />
    <glyph glyph-name="seven" unicode="7" horiz-adv-x="551" 
d="M506 657l-293 -657h-76l291 649h-383v68h461v-60z" />
    <glyph glyph-name="eight" unicode="8" horiz-adv-x="593" 
d="M297 -14q-103 0 -170.5 59t-67.5 154q0 62 33.5 110t87.5 75q-44 26 -71 69t-27 93q0 81 62 133t153 52t153 -52t62 -133q0 -50 -27 -93t-71 -69q54 -27 87.5 -75t33.5 -110q0 -95 -67.5 -154t-170.5 -59zM297 49q71 0 115.5 42t44.5 110q0 66 -46.5 108.5t-113.5 42.5
t-113.5 -42.5t-46.5 -108.5q0 -68 44.5 -110t115.5 -42zM154 541q0 -56 42 -93t101 -37t101 37t42 93q0 60 -42 94.5t-101 34.5t-101 -34.5t-42 -94.5z" />
    <glyph glyph-name="nine" unicode="9" horiz-adv-x="621" 
d="M95 206l73 -15q-8 -20 -8 -39q0 -42 35 -69.5t101 -27.5q191 0 191 309q-26 -56 -74 -86t-109 -30q-107 0 -175 67t-68 171q0 102 71.5 173.5t178.5 71.5q120 0 187 -83.5t67 -239.5q0 -150 -41 -255q-29 -77 -89 -122t-138 -45q-89 0 -150 47t-61 122q0 25 9 51z
M308 313q72 0 121.5 48t49.5 128q0 81 -49.5 129t-121.5 48t-121.5 -48t-49.5 -129q0 -80 49.5 -128t121.5 -48z" />
    <glyph glyph-name="colon" unicode=":" horiz-adv-x="194" 
d="M52 391v94h90v-94h-90zM52 0v94h90v-94h-90z" />
    <glyph glyph-name="semicolon" unicode=";" horiz-adv-x="194" 
d="M52 391v94h90v-94h-90zM52 0v94h90v-94l-69 -123l-20 7l32 116h-33z" />
    <glyph glyph-name="less" unicode="&#x3c;" horiz-adv-x="529" 
d="M52 283v69l414 204v-72l-347 -167l347 -166v-72z" />
    <glyph glyph-name="equal" unicode="=" horiz-adv-x="518" 
d="M53 233v56h412v-56h-412zM53 428v55h412v-55h-412z" />
    <glyph glyph-name="greater" unicode="&#x3e;" horiz-adv-x="529" 
d="M477 352v-69l-414 -204v72l348 166l-348 167v72z" />
    <glyph glyph-name="question" unicode="?" horiz-adv-x="548" 
d="M303 193h-78v22q0 43 20 79t72 79q59 50 80 84t21 83q0 57 -41 92.5t-107 35.5q-60 0 -101.5 -37.5t-41.5 -105.5q0 -21 6 -43l-67 -12q-13 29 -13 65q0 79 60.5 137.5t156.5 58.5q102 0 162 -53t60 -133q0 -63 -27.5 -109t-98.5 -108q-34 -29 -48.5 -59t-14.5 -76z
M220 0v95h90v-95h-90z" />
    <glyph glyph-name="at" unicode="@" horiz-adv-x="971" 
d="M656 -37l34 -54q-51 -34 -102.5 -49.5t-128.5 -15.5q-74 0 -143 25.5t-128 75t-95 135t-36 195.5q0 125 57 229t160.5 165.5t232.5 61.5q81 0 152 -23.5t127.5 -69t89 -120t32.5 -169.5q0 -139 -72 -230t-169 -91q-42 0 -66 23.5t-24 60.5q0 12 1 18l2 12
q-25 -52 -70 -83t-95 -31q-73 0 -123 57.5t-50 153.5q0 147 77.5 230.5t176.5 83.5q42 0 79 -22.5t51 -65.5l11 72h68l-58 -393q-1 -8 -1 -16q0 -39 40 -39q55 0 105 69.5t50 185.5q0 145 -90.5 235.5t-251.5 90.5q-151 0 -262.5 -114t-111.5 -281q0 -90 28.5 -162
t77 -116.5t110 -67.5t130.5 -23q106 0 185 57zM424 89q76 0 131.5 82.5t55.5 188.5q0 62 -29.5 97t-77.5 35q-75 0 -134 -67.5t-59 -180.5q0 -80 31.5 -117.5t81.5 -37.5z" />
    <glyph glyph-name="A" unicode="A" horiz-adv-x="671" 
d="M585 0l-87 217h-324l-87 -217h-76l285 717h80l284 -717h-75zM314 577l-116 -298h276l-117 298q-14 36 -21 59z" />
    <glyph glyph-name="B" unicode="B" horiz-adv-x="660" 
d="M94 0v717h256q101 0 162.5 -49t61.5 -124q0 -108 -124 -159q69 -25 109.5 -66.5t40.5 -112.5q0 -92 -72.5 -149t-175.5 -57h-258zM170 349v-286h171q83 0 133 34.5t50 108.5t-50 108.5t-133 34.5h-171zM170 653v-242h176q68 0 111.5 30.5t43.5 90.5t-43.5 90.5
t-111.5 30.5h-176z" />
    <glyph glyph-name="C" unicode="C" horiz-adv-x="765" 
d="M648 209l55 -40q-100 -183 -301 -183q-149 0 -246.5 106t-97.5 266q0 158 103 265.5t247 107.5q102 0 178 -48.5t117 -134.5l-57 -40q-80 158 -240 158q-113 0 -191.5 -89t-78.5 -219q0 -131 75 -219t193 -88q85 0 142.5 37t101.5 121z" />
    <glyph glyph-name="D" unicode="D" horiz-adv-x="709" 
d="M94 0v717h194q161 0 260.5 -96t99.5 -263t-99.5 -262.5t-260.5 -95.5h-194zM282 66q130 0 209 74t79 218q0 145 -79 219t-209 74h-112v-585h112z" />
    <glyph glyph-name="E" unicode="E" horiz-adv-x="611" 
d="M94 0v717h441v-66h-365v-248h336v-65h-336v-272h368v-66h-444z" />
    <glyph glyph-name="F" unicode="F" horiz-adv-x="610" 
d="M94 0v717h451v-66h-375v-268h344v-66h-344v-317h-76z" />
    <glyph glyph-name="G" unicode="G" horiz-adv-x="784" 
d="M655 0l-24 128q-74 -142 -231 -142q-151 0 -246 105.5t-95 266.5q0 158 102.5 265.5t246.5 107.5q99 0 176 -46t119 -128l-58 -42q-82 151 -238 151q-110 0 -190 -88.5t-80 -219.5q0 -136 72.5 -221.5t191.5 -85.5q98 0 158.5 66.5t73.5 172.5h-256v63h332v-353h-54z" />
    <glyph glyph-name="H" unicode="H" horiz-adv-x="706" 
d="M92 0v717h76v-319h371v319h75v-717h-75v333h-371v-333h-76z" />
    <glyph glyph-name="I" unicode="I" horiz-adv-x="266" 
d="M95 0v717h76v-717h-76z" />
    <glyph glyph-name="J" unicode="J" horiz-adv-x="549" 
d="M479 717v-514q0 -100 -57 -158.5t-151 -58.5q-96 0 -155.5 54.5t-59.5 157.5l78 -9q0 -69 39 -103.5t98 -34.5q58 0 95 40t37 111v515h76z" />
    <glyph glyph-name="K" unicode="K" horiz-adv-x="633" 
d="M94 0v717h76v-338l67 71l252 267h96l-250 -264l271 -453h-89l-236 394l-111 -114v-280h-76z" />
    <glyph glyph-name="L" unicode="L" horiz-adv-x="586" 
d="M94 0v717h76v-651h361v-66h-437z" />
    <glyph glyph-name="M" unicode="M" horiz-adv-x="880" 
d="M788 717v-717h-71v582l-39 -101l-198 -481h-80l-197 481q-33 83 -39 101v-582h-72v717h84l264 -655l265 655h83z" />
    <glyph glyph-name="N" unicode="N" horiz-adv-x="724" 
d="M94 0v717h81l353 -559q25 -42 31 -57v616h72v-717h-81l-353 558q-25 41 -31 56v-614h-72z" />
    <glyph glyph-name="O" unicode="O" 
d="M746 358q0 -165 -98.5 -268.5t-244.5 -103.5t-244.5 103.5t-98.5 268.5q0 166 98.5 269.5t244.5 103.5t244.5 -103.5t98.5 -269.5zM403 51q115 0 190.5 85.5t75.5 221.5t-75.5 222t-190.5 86t-190 -86t-75 -222t75 -221.5t190 -85.5z" />
    <glyph glyph-name="P" unicode="P" horiz-adv-x="694" 
d="M93 0v717h297q113 0 179.5 -60.5t66.5 -161.5q0 -102 -66.5 -162.5t-179.5 -60.5h-221v-272h-76zM169 651v-313h217q82 0 128 40.5t46 116.5t-45.5 116t-128.5 40h-217z" />
    <glyph glyph-name="Q" unicode="Q" 
d="M746 358q0 -128 -60.5 -220.5t-160.5 -130.5q37 -54 84 -101l-57 -48q-59 59 -103 131q-22 -3 -46 -3q-146 0 -244.5 103.5t-98.5 268.5q0 166 98.5 269.5t244.5 103.5t244.5 -103.5t98.5 -269.5zM403 51q115 0 190.5 85.5t75.5 221.5t-75.5 222t-190.5 86t-190 -86
t-75 -222t75 -221.5t190 -85.5z" />
    <glyph glyph-name="R" unicode="R" horiz-adv-x="655" 
d="M522 0l-178 313h-174v-313h-76v717h282q104 0 165 -57t61 -145q0 -75 -46 -127.5t-129 -69.5l179 -318h-84zM170 651v-272h190q77 0 121.5 36.5t44.5 99.5t-44.5 99.5t-121.5 36.5h-190z" />
    <glyph glyph-name="S" unicode="S" horiz-adv-x="664" 
d="M163 546q0 -108 205 -144q230 -40 230 -202q0 -91 -72 -152.5t-185 -61.5q-117 0 -192 62t-93 158l68 37q14 -93 70 -142.5t145 -49.5q84 0 133.5 42.5t49.5 100.5q0 61 -48.5 96t-146.5 54q-236 44 -236 203q0 81 66.5 132.5t168.5 51.5q95 0 163.5 -47t95.5 -125
l-62 -35q-24 68 -74.5 106t-120.5 38q-72 0 -118.5 -33t-46.5 -89z" />
    <glyph glyph-name="T" unicode="T" horiz-adv-x="571" 
d="M24 651v66h524v-66h-224v-651h-76v651h-224z" />
    <glyph glyph-name="U" unicode="U" horiz-adv-x="686" 
d="M606 717v-476q0 -120 -72 -187.5t-191 -67.5t-191 67.5t-72 187.5v476h76v-479q0 -82 50.5 -134.5t136.5 -52.5t136.5 52.5t50.5 134.5v479h76z" />
    <glyph glyph-name="V" unicode="V" horiz-adv-x="622" 
d="M270 0l-266 717h76l205 -564q15 -42 26 -80l27 80l205 564h75l-266 -717h-82z" />
    <glyph glyph-name="W" unicode="W" horiz-adv-x="913" 
d="M904 717l-202 -717h-80l-165 626l-165 -626h-81l-202 717h76l151 -558q12 -46 17 -72l17 73l145 557h84l144 -557q12 -47 17 -73l18 72l150 558h76z" />
    <glyph glyph-name="X" unicode="X" horiz-adv-x="590" 
d="M132 717l163 -274l170 274h81l-207 -326l243 -391h-86l-201 328l-200 -328h-86l244 387l-209 330h88z" />
    <glyph glyph-name="Y" unicode="Y" horiz-adv-x="565" 
d="M245 0v296l-236 421h83l168 -314q13 -24 23 -49l22 49l169 314h83l-236 -421v-296h-76z" />
    <glyph glyph-name="Z" unicode="Z" horiz-adv-x="612" 
d="M62 651v66h485v-66l-417 -585h433v-66h-518v63l421 588h-404z" />
    <glyph glyph-name="bracketleft" unicode="[" horiz-adv-x="330" 
d="M92 -154v871h181v-64h-109v-743h109v-64h-181z" />
    <glyph glyph-name="backslash" unicode="\" horiz-adv-x="507" 
d="M88 748l410 -779h-78l-410 779h78z" />
    <glyph glyph-name="bracketright" unicode="]" horiz-adv-x="330" 
d="M239 717v-871h-182v64h110v743h-110v64h182z" />
    <glyph glyph-name="asciicircum" unicode="^" horiz-adv-x="466" 
d="M195 717h77l166 -256h-70l-135 205l-134 -205h-70z" />
    <glyph glyph-name="underscore" unicode="_" horiz-adv-x="447" 
d="M9 -62v55h429v-55h-429z" />
    <glyph glyph-name="grave" unicode="`" horiz-adv-x="304" 
d="M169 717l65 -142h-61l-103 142h99z" />
    <glyph glyph-name="a" unicode="a" horiz-adv-x="556" 
d="M505 0h-70q-31 37 -31 108q-25 -58 -73 -90t-107 -32q-73 0 -120.5 43.5t-47.5 110.5q0 69 47.5 110.5t124.5 53.5l176 29v20q0 108 -126 108q-64 0 -95.5 -25t-31.5 -60q0 -9 2 -17l-60 -19q-8 19 -8 42q0 59 54.5 99.5t138.5 40.5q95 0 145.5 -44t50.5 -122v-229
q0 -44 6.5 -70.5t24.5 -56.5zM233 51q76 0 123.5 60t47.5 144v19l-161 -26q-115 -19 -115 -104q0 -43 28 -68t77 -25z" />
    <glyph glyph-name="b" unicode="b" horiz-adv-x="621" 
d="M81 0v717h70v-300q30 48 81 76.5t108 28.5q103 0 169 -75t66 -193q0 -117 -69 -192.5t-174 -75.5q-57 0 -107.5 30t-73.5 73v-89h-70zM325 49q77 0 128 56.5t51 148.5t-51 148.5t-128 56.5t-128.5 -57t-51.5 -148t51.5 -148t128.5 -57z" />
    <glyph glyph-name="c" unicode="c" horiz-adv-x="570" 
d="M479 165l51 -33q-34 -69 -93 -107.5t-135 -38.5q-110 0 -184 75.5t-74 192.5q0 116 76 192t182 76q82 0 140 -36.5t85 -102.5l-54 -34q-56 110 -170 110q-80 0 -133.5 -56t-53.5 -149q0 -94 52.5 -149.5t134.5 -55.5q62 0 103.5 29.5t72.5 86.5z" />
    <glyph glyph-name="d" unicode="d" horiz-adv-x="621" 
d="M541 717v-717h-70v95q-58 -109 -181 -109q-105 0 -174.5 75.5t-69.5 192.5t69.5 192.5t173.5 75.5q58 0 106 -26.5t76 -76.5v298h70zM297 49q77 0 128 56.5t51 148.5t-51 148.5t-128 56.5t-128 -56.5t-51 -148.5t51 -148.5t128 -56.5z" />
    <glyph glyph-name="e" unicode="e" horiz-adv-x="587" 
d="M543 244h-426q3 -85 51 -141t128 -56q122 0 177 118l51 -31q-75 -148 -231 -148q-105 0 -177.5 76t-72.5 192t74.5 192t178.5 76q115 0 181 -70.5t66 -183.5v-24zM296 461q-69 0 -116 -44.5t-59 -113.5h346q-3 74 -53 116t-118 42z" />
    <glyph glyph-name="f" unicode="f" horiz-adv-x="323" 
d="M26 453v55h80v101q0 73 39.5 116t111.5 43q27 0 51 -8l-12 -59q-18 6 -36 6q-38 0 -61 -25.5t-23 -68.5v-105h122v-55h-122v-453h-70v453h-80z" />
    <glyph glyph-name="g" unicode="g" horiz-adv-x="601" 
d="M85 -27l68 -18q-8 -19 -8 -36q0 -36 37.5 -57.5t109.5 -21.5q167 0 167 193v78q-24 -46 -70.5 -74.5t-105.5 -28.5q-102 0 -170 70t-68 187q0 119 68 188t169 69q59 0 106 -25.5t71 -73.5v85h69v-480q0 -118 -61.5 -184.5t-175.5 -66.5q-106 0 -161.5 40t-55.5 106
q0 30 11 50zM292 461q-77 0 -126 -53t-49 -143t49 -142.5t126 -52.5t126 52.5t49 142.5t-49 143t-126 53z" />
    <glyph glyph-name="h" unicode="h" horiz-adv-x="590" 
d="M510 343v-343h-70v335q0 59 -36 91.5t-94 32.5q-62 0 -110.5 -50.5t-48.5 -126.5v-282h-70v717h70v-303q25 49 74 78.5t106 29.5q79 0 129 -46t50 -133z" />
    <glyph glyph-name="i" unicode="i" horiz-adv-x="235" 
d="M83 0v508h70v-508h-70zM75 600v92h86v-92h-86z" />
    <glyph glyph-name="j" unicode="j" horiz-adv-x="235" 
d="M-27 -208l11 66q22 -9 36 -9q63 0 63 73v586h70v-570q0 -154 -127 -154q-24 0 -53 8zM75 600v92h86v-92h-86z" />
    <glyph glyph-name="k" unicode="k" horiz-adv-x="506" 
d="M151 717v-411l207 202h86l-177 -173l211 -335h-82l-178 285l-67 -65v-220h-70v717h70z" />
    <glyph glyph-name="l" unicode="l" horiz-adv-x="235" 
d="M83 0v717h70v-717h-70z" />
    <glyph glyph-name="m" unicode="m" horiz-adv-x="835" 
d="M756 384v-384h-72v358q0 101 -100 101q-54 0 -92 -48t-38 -137v-274h-72v352q0 48 -25 77.5t-71 29.5q-56 0 -95 -48.5t-39 -138.5v-272h-72v508h72v-81q19 39 61.5 67t93.5 28q103 0 137 -98q52 98 161 98q67 0 109 -37.5t42 -100.5z" />
    <glyph glyph-name="n" unicode="n" horiz-adv-x="584" 
d="M504 343v-343h-70v335q0 60 -34 92t-95 32q-64 0 -109 -50t-45 -127v-282h-70v508h70v-92q25 48 73.5 77t104.5 29q76 0 125.5 -44.5t49.5 -134.5z" />
    <glyph glyph-name="o" unicode="o" horiz-adv-x="616" 
d="M571 254q0 -123 -78.5 -195.5t-184.5 -72.5t-184.5 72.5t-78.5 195.5t78.5 195.5t184.5 72.5t184.5 -72.5t78.5 -195.5zM308 49q82 0 137 58t55 147t-55 147t-137 58t-136.5 -58t-54.5 -147t54.5 -147t136.5 -58z" />
    <glyph glyph-name="p" unicode="p" horiz-adv-x="622" 
d="M81 -209v717h70v-91q25 44 75.5 74.5t108.5 30.5q108 0 174 -74.5t66 -193.5q0 -118 -67 -193t-175 -75q-56 0 -105 26.5t-77 71.5v-293h-70zM325 459q-77 0 -128.5 -57t-51.5 -148t51.5 -148t128.5 -57t128 56.5t51 148.5t-51 148.5t-128 56.5z" />
    <glyph glyph-name="q" unicode="q" horiz-adv-x="622" 
d="M542 508v-717h-70v298q-27 -49 -74.5 -76t-105.5 -27q-104 0 -174.5 75.5t-70.5 192.5t70.5 192.5t174.5 75.5q61 0 109.5 -28.5t70.5 -75.5v90h70zM298 459q-77 0 -128 -56.5t-51 -148.5t50 -148.5t129 -56.5q77 0 128 56.5t51 148.5t-51 148.5t-128 56.5z" />
    <glyph glyph-name="r" unicode="r" horiz-adv-x="356" 
d="M338 517l-12 -64q-17 6 -40 6q-56 0 -95.5 -52t-39.5 -129v-278h-70v508h70v-92q22 48 60.5 77t88.5 29q21 0 38 -5z" />
    <glyph glyph-name="s" unicode="s" horiz-adv-x="502" 
d="M146 388q0 -68 140 -93q169 -31 169 -147q0 -67 -51 -114.5t-139 -47.5q-81 0 -135 41t-79 106l63 37q40 -121 151 -121q54 0 86 26t32 70q0 74 -134 96q-74 12 -121.5 49t-47.5 95q0 63 50.5 100t122.5 37q143 0 197 -122l-57 -33q-37 94 -139 94q-48 0 -78 -19.5
t-30 -53.5z" />
    <glyph glyph-name="t" unicode="t" horiz-adv-x="348" 
d="M32 453v55h87v137h71v-137h121v-55h-121v-322q0 -43 16 -62.5t57 -19.5q17 0 37 6l6 -60q-28 -9 -62 -9q-55 0 -90 33t-35 103v331h-87z" />
    <glyph glyph-name="u" unicode="u" horiz-adv-x="584" 
d="M81 171v337h70v-335q0 -59 34.5 -91.5t90.5 -32.5q64 0 111 50.5t47 126.5v282h70v-508h-70v90q-25 -47 -71.5 -75.5t-103.5 -28.5q-75 0 -126.5 46t-51.5 139z" />
    <glyph glyph-name="v" unicode="v" horiz-adv-x="505" 
d="M494 508l-205 -508h-72l-205 508h78l163 -427l163 427h78z" />
    <glyph glyph-name="w" unicode="w" horiz-adv-x="698" 
d="M388 508l118 -425l110 425h74l-146 -508h-78l-117 427l-117 -427h-77l-147 508h74l111 -425l117 425h78z" />
    <glyph glyph-name="x" unicode="x" horiz-adv-x="444" 
d="M108 508l114 -182l117 182h81l-156 -235l176 -273h-78l-140 216l-139 -216h-82l182 270l-157 238h82z" />
    <glyph glyph-name="y" unicode="y" horiz-adv-x="504" 
d="M60 -206l12 65q23 -10 39 -10q23 0 38 12.5t27 44.5l39 99l-207 503h78l166 -413l166 413h78l-260 -632q-39 -92 -124 -92q-29 0 -52 10z" />
    <glyph glyph-name="z" unicode="z" horiz-adv-x="495" 
d="M126 66h325v-66h-406v66l307 376h-295v66h378v-66z" />
    <glyph glyph-name="braceleft" unicode="{" horiz-adv-x="376" 
d="M61 249v65q39 0 58.5 22.5t19.5 76.5v125q0 96 35.5 137.5t115.5 41.5h31v-64h-32q-78 0 -78 -92v-153q0 -56 -15.5 -82t-53.5 -44q38 -18 53.5 -44t15.5 -82v-154q0 -92 78 -92h32v-64h-31q-80 0 -115.5 42t-35.5 138v125q0 54 -19.5 76t-58.5 22z" />
    <glyph glyph-name="bar" unicode="|" horiz-adv-x="262" 
d="M94 -113v871h74v-871h-74z" />
    <glyph glyph-name="braceright" unicode="}" horiz-adv-x="376" 
d="M315 314v-65q-39 0 -58 -21.5t-19 -76.5v-125q0 -96 -35.5 -138t-115.5 -42h-31v64h32q78 0 78 92v154q0 56 15 82t53 44q-38 18 -53 44t-15 82v153q0 92 -78 92h-32v64h31q80 0 115.5 -41.5t35.5 -137.5v-125q0 -55 19 -77t58 -22z" />
    <glyph glyph-name="asciitilde" unicode="~" horiz-adv-x="457" 
d="M152 343q-14 0 -23 -9t-9 -22q0 -11 6 -23l-59 -13q-13 20 -13 40q0 43 27 66.5t67 23.5q30 0 54.5 -11t37.5 -23.5t30.5 -23.5t35.5 -11q14 0 23 9t9 22q0 11 -6 23l59 12q12 -18 12 -39q0 -43 -27 -66.5t-67 -23.5q-30 0 -54 11t-37.5 23.5t-30.5 23.5t-35 11z" />
    <glyph glyph-name="uni00A0" unicode="&#xa0;" horiz-adv-x="282" 
 />
    <glyph glyph-name="exclamdown" unicode="&#xa1;" horiz-adv-x="274" 
d="M176 17v-226h-78v226l13 305h53zM182 508v-95h-90v95h90z" />
    <glyph glyph-name="cent" unicode="&#xa2;" horiz-adv-x="582" 
d="M487 165l52 -33q-63 -127 -193 -144v-101h-70v101q-98 11 -161 85t-63 181q0 105 64.5 179t159.5 86v116h70v-115q68 -7 117.5 -43t72.5 -94l-55 -34q-48 94 -135 107v-405q85 13 141 114zM124 254q0 -83 41.5 -137t110.5 -65v404q-67 -12 -109.5 -65.5t-42.5 -136.5z
" />
    <glyph glyph-name="sterling" unicode="&#xa3;" horiz-adv-x="578" 
d="M37 327v59h76q-21 71 -21 124q0 101 63.5 161t159.5 60q97 0 154.5 -48.5t57.5 -125.5q0 -34 -15 -72l-67 13q11 31 11 56q0 48 -39 79t-103 31q-66 0 -106 -41.5t-40 -111.5q0 -39 20 -125h201v-59h-186q8 -31 8 -81q0 -86 -60 -178h365v-68h-438v51q61 100 61 191
q0 45 -8 85h-94z" />
    <glyph glyph-name="currency" unicode="&#xa4;" horiz-adv-x="651" 
d="M551 358q0 -82 -43 -133l70 -69l-50 -50l-69 70q-57 -46 -133 -46t-133 46l-70 -70l-49 50l69 69q-43 50 -43 133q0 84 43 134l-69 69l49 49l70 -69q57 46 133 46t133 -46l69 69l50 -49l-70 -69q43 -51 43 -134zM326 194q68 0 111.5 45.5t43.5 118.5t-43.5 119t-111.5 46
t-112 -46t-44 -119t44 -118.5t112 -45.5z" />
    <glyph glyph-name="yen" unicode="&#xa5;" horiz-adv-x="565" 
d="M93 296v55h122l-195 366h83l157 -313q12 -23 23 -48l22 48l157 313h83l-195 -366h122v-55h-151v-85h151v-55h-151v-156h-76v156h-152v55h152v85h-152z" />
    <glyph glyph-name="brokenbar" unicode="&#xa6;" horiz-adv-x="262" 
d="M168 390h-74v368h74v-368zM94 255h74v-368h-74v368z" />
    <glyph glyph-name="section" unicode="&#xa7;" horiz-adv-x="535" 
d="M469 294q0 -64 -57 -108q53 -48 53 -117q0 -77 -56 -120.5t-137 -43.5q-77 0 -130.5 37t-80.5 98l58 41q47 -113 155 -113q48 0 83.5 25.5t35.5 72.5q0 43 -37 73.5t-127 50.5q-162 36 -162 152q0 65 56 108q-52 47 -52 117q0 77 55.5 120.5t136.5 43.5q77 0 130.5 -37
t80.5 -98l-57 -41q-47 113 -156 113q-48 0 -83.5 -25.5t-35.5 -72.5q0 -89 164 -125q163 -36 163 -151zM263 385q-43 9 -91 32q-34 -29 -34 -65q0 -37 30.5 -60.5t103.5 -40.5q49 -12 90 -32q35 27 35 65q0 37 -30.5 60.5t-103.5 40.5z" />
    <glyph glyph-name="dieresis" unicode="&#xa8;" horiz-adv-x="399" 
d="M233 604v88h90v-88h-90zM77 604v88h89v-88h-89z" />
    <glyph glyph-name="copyright" unicode="&#xa9;" horiz-adv-x="868" 
d="M61 358q0 155 109.5 264t263.5 109t263.5 -109t109.5 -264t-109.5 -263.5t-263.5 -108.5t-263.5 108.5t-109.5 263.5zM119 358q0 -131 92 -224t223 -93t223.5 93t92.5 224t-92.5 224.5t-223.5 93.5t-223 -93t-92 -225zM573 289l39 -26q-56 -113 -177 -113
q-87 0 -144.5 58.5t-57.5 149.5q0 90 59.5 149.5t142.5 59.5q64 0 109.5 -28.5t65.5 -79.5l-42 -26q-44 85 -132 85q-62 0 -104 -44t-42 -116t41 -115.5t105 -43.5q48 0 80 22.5t57 67.5z" />
    <glyph glyph-name="ordfeminine" unicode="&#xaa;" horiz-adv-x="394" 
d="M371 307h-59q-21 25 -22 71q-15 -37 -47 -57.5t-73 -20.5q-53 0 -85 30.5t-32 77.5q0 95 120 114l117 19v12q0 74 -81 74q-39 0 -59.5 -16t-20.5 -39q0 -5 1 -10l-53 -17q-5 11 -5 27q0 41 39 71t98 30q68 0 104 -31t36 -87v-157q0 -53 22 -91zM178 353q51 0 81.5 38
t30.5 91v12l-107 -17q-31 -5 -51 -21.5t-20 -42.5q0 -27 19 -43.5t47 -16.5z" />
    <glyph glyph-name="guillemotleft" unicode="&#xab;" horiz-adv-x="517" 
d="M385 483h86l-154 -201l154 -202h-86l-158 202zM214 483h86l-154 -201l154 -202h-86l-158 202z" />
    <glyph glyph-name="logicalnot" unicode="&#xac;" horiz-adv-x="546" 
d="M467 208h-76v136h-339v59h415v-195z" />
    <glyph glyph-name="uni00AD" unicode="&#xad;" horiz-adv-x="466" 
d="M50 291v55h367v-55h-367z" />
    <glyph glyph-name="registered" unicode="&#xae;" horiz-adv-x="868" 
d="M526 155l-100 177h-76v-177h-56v407h165q60 0 95 -32.5t35 -83.5q0 -43 -29 -72.5t-73 -38.5l102 -180h-63zM350 513v-134h100q42 0 63 18t21 49t-21 49t-63 18h-100zM61 358q0 155 109.5 264t263.5 109t263.5 -109t109.5 -264t-109.5 -263.5t-263.5 -108.5t-263.5 108.5
t-109.5 263.5zM119 358q0 -131 92 -224t223 -93t223.5 93t92.5 224t-92.5 224.5t-223.5 93.5t-223 -93t-92 -225z" />
    <glyph glyph-name="macron" unicode="&#xaf;" horiz-adv-x="323" 
d="M51 618v64h221v-64h-221z" />
    <glyph glyph-name="degree" unicode="&#xb0;" horiz-adv-x="368" 
d="M45 593q0 58 39.5 98t99.5 40t100 -40t40 -98t-40 -98t-100 -40t-99.5 40t-39.5 98zM102 593q0 -35 23 -59t59 -24t59 24t23 59t-23 59t-59 24t-59 -24t-23 -59z" />
    <glyph glyph-name="plusminus" unicode="&#xb1;" horiz-adv-x="518" 
d="M53 346v55h178v179h56v-179h178v-55h-178v-178h-56v178h-178zM53 0v55h412v-55h-412z" />
    <glyph glyph-name="uni00B2" unicode="&#xb2;" horiz-adv-x="347" 
d="M65 398l133 130q46 45 46 94q0 23 -16.5 38t-46.5 15q-29 0 -46 -17t-17 -45q0 -11 4 -20l-51 -7q-6 15 -6 34q0 41 32 72.5t84 31.5q55 0 87 -28.5t32 -73.5q0 -59 -68 -127l-85 -84h157v-53h-239v40z" />
    <glyph glyph-name="uni00B3" unicode="&#xb3;" horiz-adv-x="354" 
d="M62 487l52 -11q-3 -9 -3 -19q0 -26 19 -41.5t52 -15.5q32 0 51.5 17.5t19.5 49.5q0 30 -26.5 45.5t-71.5 15.5v44q78 0 78 60q0 21 -16 33.5t-41 12.5q-26 0 -43 -14.5t-17 -38.5q0 -6 2 -16l-47 -6q-5 14 -5 31q0 37 31 63.5t79 26.5q51 0 82.5 -25.5t31.5 -61.5
q0 -56 -53 -81q30 -10 50 -33.5t20 -57.5q0 -52 -35.5 -83t-89.5 -31q-57 0 -92 31.5t-35 71.5q0 19 7 33z" />
    <glyph glyph-name="acute" unicode="&#xb4;" horiz-adv-x="304" 
d="M70 575l65 142h99l-103 -142h-61z" />
    <glyph glyph-name="mu" unicode="&#xb5;" horiz-adv-x="584" 
d="M81 -209v717h70v-335q0 -59 34.5 -91.5t90.5 -32.5q63 0 110.5 50.5t47.5 126.5v282h70v-508h-70v90q-25 -48 -71.5 -76t-103.5 -28q-67 0 -112 32q4 -64 4 -72v-155h-70z" />
    <glyph glyph-name="paragraph" unicode="&#xb6;" horiz-adv-x="637" 
d="M376 651v-774h-76v447h-32q-96 0 -158 53.5t-62 142.5t62 143t158 54h330v-66h-56v-774h-76v774h-90z" />
    <glyph glyph-name="periodcentered" unicode="&#xb7;" horiz-adv-x="194" 
d="M52 317v95h90v-95h-90z" />
    <glyph glyph-name="cedilla" unicode="&#xb8;" horiz-adv-x="311" 
d="M102 -105l-30 28l34 93h53l-37 -73q21 12 46 12q33 0 55 -22t22 -57q0 -40 -26.5 -62.5t-65.5 -22.5q-34 0 -56.5 17t-29.5 46l46 11q11 -29 40 -29q18 0 29 10.5t11 29.5q0 17 -11 27.5t-30 10.5q-25 0 -50 -19z" />
    <glyph glyph-name="uni00B9" unicode="&#xb9;" horiz-adv-x="257" 
d="M49 621v52q34 0 52 10t29 34h52v-359h-56v282q-24 -19 -77 -19z" />
    <glyph glyph-name="ordmasculine" unicode="&#xba;" horiz-adv-x="468" 
d="M419 486q0 -85 -56.5 -135.5t-128.5 -50.5t-128 50.5t-56 135.5t56 136t128 51t128.5 -51t56.5 -136zM234 353q53 0 89 38t36 95q0 58 -36 96t-89 38t-88.5 -38t-35.5 -96t35.5 -95.5t88.5 -37.5z" />
    <glyph glyph-name="guillemotright" unicode="&#xbb;" horiz-adv-x="517" 
d="M132 80h-86l154 202l-154 201h86l158 -201zM303 80h-86l154 202l-154 201h86l158 -201z" />
    <glyph glyph-name="onequarter" unicode="&#xbc;" horiz-adv-x="768" 
d="M49 621v52q34 0 52 10t29 34h52v-359h-56v282q-24 -19 -77 -19zM176 2l-47 32l445 681l48 -32zM437 70v49l170 239h59v-239h40v-49h-40v-70h-58v70h-171zM608 278l-115 -159h115v159z" />
    <glyph glyph-name="onehalf" unicode="&#xbd;" horiz-adv-x="793" 
d="M49 621v52q34 0 52 10t29 34h52v-359h-56v282q-24 -19 -77 -19zM176 2l-47 32l445 681l48 -32zM497 40l133 130q46 45 46 93q0 23 -16.5 38t-46.5 15q-29 0 -46 -16.5t-17 -44.5q0 -12 4 -21l-51 -7q-6 15 -6 34q0 41 32 73t84 32q55 0 87 -29t32 -74q0 -60 -67 -127
l-85 -84h156v-52h-239v40z" />
    <glyph glyph-name="threequarters" unicode="&#xbe;" horiz-adv-x="838" 
d="M236 3l-48 32l446 681l47 -32zM508 70v49l170 239h58v-239h40v-49h-40v-70h-57v70h-171zM679 278l-116 -159h116v159zM62 487l52 -11q-3 -9 -3 -19q0 -26 19 -41.5t52 -15.5q32 0 51.5 17.5t19.5 49.5q0 30 -26.5 45.5t-71.5 15.5v44q78 0 78 60q0 21 -16 33.5t-41 12.5
q-26 0 -43 -14.5t-17 -38.5q0 -6 2 -16l-47 -6q-5 14 -5 31q0 37 31 63.5t79 26.5q51 0 82.5 -25.5t31.5 -61.5q0 -56 -53 -81q30 -10 50 -33.5t20 -57.5q0 -52 -35.5 -83t-89.5 -31q-57 0 -92 31.5t-35 71.5q0 19 7 33z" />
    <glyph glyph-name="questiondown" unicode="&#xbf;" horiz-adv-x="548" 
d="M246 315h78v-22q0 -43 -20.5 -79t-72.5 -79q-59 -49 -79.5 -83t-20.5 -84q0 -57 41 -92.5t107 -35.5q60 0 101.5 37.5t41.5 105.5q0 21 -6 43l67 12q13 -29 13 -65q0 -79 -60.5 -137.5t-156.5 -58.5q-102 0 -162 53t-60 133q0 63 27.5 109t98.5 108q34 29 48.5 59
t14.5 76zM329 508v-95h-90v95h90z" />
    <glyph glyph-name="Agrave" unicode="&#xc0;" horiz-adv-x="671" 
d="M585 0l-87 217h-324l-87 -217h-76l285 717h80l284 -717h-75zM314 577l-116 -298h276l-117 298q-14 36 -21 59zM297 926l65 -142h-61l-103 142h99z" />
    <glyph glyph-name="Aacute" unicode="&#xc1;" horiz-adv-x="671" 
d="M585 0l-87 217h-324l-87 -217h-76l285 717h80l284 -717h-75zM314 577l-116 -298h276l-117 298q-14 36 -21 59zM309 784l66 142h99l-103 -142h-62z" />
    <glyph glyph-name="Acircumflex" unicode="&#xc2;" horiz-adv-x="671" 
d="M585 0l-87 217h-324l-87 -217h-76l285 717h80l284 -717h-75zM314 577l-116 -298h276l-117 298q-14 36 -21 59zM204 784l101 142h62l101 -142h-62l-70 75l-70 -75h-62z" />
    <glyph glyph-name="Atilde" unicode="&#xc3;" horiz-adv-x="671" 
d="M585 0l-87 217h-324l-87 -217h-76l285 717h80l284 -717h-75zM314 577l-116 -298h276l-117 298q-14 36 -21 59zM260 854q-13 0 -22.5 -8.5t-9.5 -19.5q0 -13 6 -25l-54 -11q-11 16 -11 43q0 38 26 58.5t63 20.5q40 0 65 -17t44.5 -34t44.5 -17q13 0 22 8t9 19q0 14 -6 26
l55 11q11 -17 11 -43q0 -38 -26 -59t-63 -21q-31 0 -54.5 11t-34.5 23.5t-28 23.5t-37 11z" />
    <glyph glyph-name="Adieresis" unicode="&#xc4;" horiz-adv-x="671" 
d="M585 0l-87 217h-324l-87 -217h-76l285 717h80l284 -717h-75zM314 577l-116 -298h276l-117 298q-14 36 -21 59zM370 813v88h89v-88h-89zM213 813v88h89v-88h-89z" />
    <glyph glyph-name="Aring" unicode="&#xc5;" horiz-adv-x="671" 
d="M585 0l-87 217h-324l-87 -217h-76l285 717h80l284 -717h-75zM314 577l-116 -298h276l-117 298q-14 36 -21 59zM286 859q0 -22 14 -36.5t36 -14.5t36 14.5t14 36.5t-14 36.5t-36 14.5t-36 -14.5t-14 -36.5zM238 859q0 41 28.5 69t69.5 28t69.5 -28t28.5 -69t-28 -69
t-70 -28t-70 28t-28 69z" />
    <glyph glyph-name="AE" unicode="&#xc6;" horiz-adv-x="954" 
d="M437 0v217h-253l-97 -217h-78l318 717h551v-66h-365v-248h336v-65h-336v-272h368v-66h-444zM375 651l-164 -372h226v372h-62z" />
    <glyph glyph-name="Ccedilla" unicode="&#xc7;" horiz-adv-x="765" 
d="M360 -105l-30 28l24 66q-131 18 -213.5 120.5t-82.5 248.5q0 158 103 265.5t247 107.5q102 0 178 -48.5t117 -134.5l-57 -40q-80 158 -240 158q-113 0 -191.5 -89t-78.5 -219q0 -131 75 -219t193 -88q85 0 142.5 37t101.5 121l55 -40q-48 -88 -120 -135.5t-182 -47.5
l-21 -43q21 12 46 12q33 0 55 -22t22 -57q0 -40 -26.5 -62.5t-65.5 -22.5q-34 0 -56.5 17t-29.5 46l46 11q11 -29 40 -29q18 0 29 10.5t11 29.5q0 17 -11 27.5t-30 10.5q-25 0 -50 -19z" />
    <glyph glyph-name="Egrave" unicode="&#xc8;" horiz-adv-x="611" 
d="M94 0v717h441v-66h-365v-248h336v-65h-336v-272h368v-66h-444zM310 926l66 -142h-62l-103 142h99z" />
    <glyph glyph-name="Eacute" unicode="&#xc9;" horiz-adv-x="611" 
d="M94 0v717h441v-66h-365v-248h336v-65h-336v-272h368v-66h-444zM262 784l66 142h99l-103 -142h-62z" />
    <glyph glyph-name="Ecircumflex" unicode="&#xca;" horiz-adv-x="611" 
d="M94 0v717h441v-66h-365v-248h336v-65h-336v-272h368v-66h-444zM185 784l102 142h61l102 -142h-63l-70 75l-69 -75h-63z" />
    <glyph glyph-name="Edieresis" unicode="&#xcb;" horiz-adv-x="611" 
d="M94 0v717h441v-66h-365v-248h336v-65h-336v-272h368v-66h-444zM351 813v88h89v-88h-89zM195 813v88h89v-88h-89z" />
    <glyph glyph-name="Igrave" unicode="&#xcc;" horiz-adv-x="266" 
d="M95 0v717h76v-717h-76zM105 926l66 -142h-61l-104 142h99z" />
    <glyph glyph-name="Iacute" unicode="&#xcd;" horiz-adv-x="266" 
d="M95 0v717h76v-717h-76zM95 784l66 142h99l-103 -142h-62z" />
    <glyph glyph-name="Icircumflex" unicode="&#xce;" horiz-adv-x="266" 
d="M95 0v717h76v-717h-76zM1 784l101 142h62l101 -142h-62l-70 75l-70 -75h-62z" />
    <glyph glyph-name="Idieresis" unicode="&#xcf;" horiz-adv-x="266" 
d="M95 0v717h76v-717h-76zM167 813v88h89v-88h-89zM10 813v88h89v-88h-89z" />
    <glyph glyph-name="Eth" unicode="&#xd0;" horiz-adv-x="734" 
d="M45 327v63h74v327h193q161 0 261 -96t100 -263t-100 -262.5t-261 -95.5h-193v327h-74zM306 66q131 0 210 74t79 218t-79.5 218.5t-209.5 74.5h-111v-261h159v-63h-159v-261h111z" />
    <glyph glyph-name="Ntilde" unicode="&#xd1;" horiz-adv-x="724" 
d="M94 0v717h81l353 -559q25 -42 31 -57v616h72v-717h-81l-353 558q-25 41 -31 56v-614h-72zM287 854q-13 0 -22.5 -8.5t-9.5 -19.5q0 -13 6 -25l-54 -11q-11 16 -11 43q0 38 26 58.5t63 20.5q31 0 54 -10.5t34 -23.5t28 -23.5t37 -10.5q13 0 22.5 8t9.5 19q0 14 -6 26
l54 11q11 -17 11 -43q0 -38 -26 -59t-63 -21q-31 0 -54 11t-34 23.5t-28 23.5t-37 11z" />
    <glyph glyph-name="Ograve" unicode="&#xd2;" 
d="M746 358q0 -165 -98.5 -268.5t-244.5 -103.5t-244.5 103.5t-98.5 268.5q0 166 98.5 269.5t244.5 103.5t244.5 -103.5t98.5 -269.5zM403 51q115 0 190.5 85.5t75.5 221.5t-75.5 222t-190.5 86t-190 -86t-75 -222t75 -221.5t190 -85.5zM390 926l66 -142h-62l-103 142h99z
" />
    <glyph glyph-name="Oacute" unicode="&#xd3;" 
d="M746 358q0 -165 -98.5 -268.5t-244.5 -103.5t-244.5 103.5t-98.5 268.5q0 166 98.5 269.5t244.5 103.5t244.5 -103.5t98.5 -269.5zM403 51q115 0 190.5 85.5t75.5 221.5t-75.5 222t-190.5 86t-190 -86t-75 -222t75 -221.5t190 -85.5zM352 784l66 142h99l-103 -142h-62z
" />
    <glyph glyph-name="Ocircumflex" unicode="&#xd4;" 
d="M746 358q0 -165 -98.5 -268.5t-244.5 -103.5t-244.5 103.5t-98.5 268.5q0 166 98.5 269.5t244.5 103.5t244.5 -103.5t98.5 -269.5zM403 51q115 0 190.5 85.5t75.5 221.5t-75.5 222t-190.5 86t-190 -86t-75 -222t75 -221.5t190 -85.5zM271 784l102 142h61l102 -142h-63
l-70 75l-69 -75h-63z" />
    <glyph glyph-name="Otilde" unicode="&#xd5;" 
d="M746 358q0 -165 -98.5 -268.5t-244.5 -103.5t-244.5 103.5t-98.5 268.5q0 166 98.5 269.5t244.5 103.5t244.5 -103.5t98.5 -269.5zM403 51q115 0 190.5 85.5t75.5 221.5t-75.5 222t-190.5 86t-190 -86t-75 -222t75 -221.5t190 -85.5zM328 854q-13 0 -22.5 -8.5
t-9.5 -19.5q0 -13 6 -25l-54 -11q-11 16 -11 43q0 38 26 58.5t63 20.5q31 0 54 -10.5t34 -23.5t28 -23.5t37 -10.5q13 0 22.5 8t9.5 19q0 14 -6 26l54 11q11 -17 11 -43q0 -38 -26 -59t-63 -21q-31 0 -54 11t-34 23.5t-28 23.5t-37 11z" />
    <glyph glyph-name="Odieresis" unicode="&#xd6;" 
d="M746 358q0 -165 -98.5 -268.5t-244.5 -103.5t-244.5 103.5t-98.5 268.5q0 166 98.5 269.5t244.5 103.5t244.5 -103.5t98.5 -269.5zM403 51q115 0 190.5 85.5t75.5 221.5t-75.5 222t-190.5 86t-190 -86t-75 -222t75 -221.5t190 -85.5zM437 813v88h89v-88h-89zM281 813v88
h89v-88h-89z" />
    <glyph glyph-name="multiply" unicode="&#xd7;" horiz-adv-x="518" 
d="M94 500l39 39l126 -126l126 126l39 -39l-126 -126l126 -126l-39 -39l-126 126l-126 -126l-39 39l126 126z" />
    <glyph glyph-name="Oslash" unicode="&#xd8;" 
d="M746 358q0 -165 -98.5 -268.5t-244.5 -103.5q-75 0 -143 30l-26 -49l-55 31l26 50q-68 48 -106.5 128.5t-38.5 181.5q0 166 98.5 269.5t244.5 103.5q73 0 143 -31l26 50l56 -31l-27 -50q67 -48 106 -129t39 -182zM403 51q115 0 190.5 85.5t75.5 221.5q0 158 -101 247
l-277 -529q53 -25 112 -25zM138 358q0 -160 101 -246l276 528q-55 26 -112 26q-115 0 -190 -86t-75 -222z" />
    <glyph glyph-name="Ugrave" unicode="&#xd9;" horiz-adv-x="686" 
d="M606 717v-476q0 -120 -72 -187.5t-191 -67.5t-191 67.5t-72 187.5v476h76v-479q0 -82 50.5 -134.5t136.5 -52.5t136.5 52.5t50.5 134.5v479h76zM329 926l65 -142h-61l-104 142h100z" />
    <glyph glyph-name="Uacute" unicode="&#xda;" horiz-adv-x="686" 
d="M606 717v-476q0 -120 -72 -187.5t-191 -67.5t-191 67.5t-72 187.5v476h76v-479q0 -82 50.5 -134.5t136.5 -52.5t136.5 52.5t50.5 134.5v479h76zM292 784l65 142h100l-104 -142h-61z" />
    <glyph glyph-name="Ucircumflex" unicode="&#xdb;" horiz-adv-x="686" 
d="M606 717v-476q0 -120 -72 -187.5t-191 -67.5t-191 67.5t-72 187.5v476h76v-479q0 -82 50.5 -134.5t136.5 -52.5t136.5 52.5t50.5 134.5v479h76zM211 784l101 142h62l101 -142h-62l-70 75l-70 -75h-62z" />
    <glyph glyph-name="Udieresis" unicode="&#xdc;" horiz-adv-x="686" 
d="M606 717v-476q0 -120 -72 -187.5t-191 -67.5t-191 67.5t-72 187.5v476h76v-479q0 -82 50.5 -134.5t136.5 -52.5t136.5 52.5t50.5 134.5v479h76zM377 813v88h89v-88h-89zM220 813v88h89v-88h-89z" />
    <glyph glyph-name="Yacute" unicode="&#xdd;" horiz-adv-x="565" 
d="M245 0v296l-236 421h83l168 -314q13 -24 23 -49l22 49l169 314h83l-236 -421v-296h-76zM221 784l66 142h99l-103 -142h-62z" />
    <glyph glyph-name="Thorn" unicode="&#xde;" horiz-adv-x="694" 
d="M93 0v717h76v-136h221q113 0 179.5 -60.5t66.5 -162.5q0 -101 -66.5 -161.5t-179.5 -60.5h-221v-136h-76zM169 515v-313h217q83 0 128.5 40t45.5 116t-46 116.5t-128 40.5h-217z" />
    <glyph glyph-name="germandbls" unicode="&#xdf;" horiz-adv-x="608" 
d="M257 361v62h23q73 0 116 34.5t43 99.5q0 50 -37.5 81.5t-90.5 31.5t-91.5 -37t-38.5 -106v-527h-71v453h-82v55h82v15q0 101 60 154.5t141 53.5q88 0 143 -47.5t55 -122.5q0 -63 -37 -104.5t-92 -58.5q175 -49 175 -198q0 -92 -54.5 -153t-140.5 -61q-85 0 -152 54l36 57
q52 -50 114 -50q55 0 90 42t35 106q0 80 -58.5 123t-143.5 43h-24z" />
    <glyph glyph-name="agrave" unicode="&#xe0;" horiz-adv-x="556" 
d="M505 0h-70q-31 37 -31 108q-25 -58 -73 -90t-107 -32q-73 0 -120.5 43.5t-47.5 110.5q0 69 47.5 110.5t124.5 53.5l176 29v20q0 108 -126 108q-64 0 -95.5 -25t-31.5 -60q0 -9 2 -17l-60 -19q-8 19 -8 42q0 59 54.5 99.5t138.5 40.5q95 0 145.5 -44t50.5 -122v-229
q0 -44 6.5 -70.5t24.5 -56.5zM233 51q76 0 123.5 60t47.5 144v19l-161 -26q-115 -19 -115 -104q0 -43 28 -68t77 -25zM253 717l65 -142h-61l-103 142h99z" />
    <glyph glyph-name="aacute" unicode="&#xe1;" horiz-adv-x="556" 
d="M505 0h-70q-31 37 -31 108q-25 -58 -73 -90t-107 -32q-73 0 -120.5 43.5t-47.5 110.5q0 69 47.5 110.5t124.5 53.5l176 29v20q0 108 -126 108q-64 0 -95.5 -25t-31.5 -60q0 -9 2 -17l-60 -19q-8 19 -8 42q0 59 54.5 99.5t138.5 40.5q95 0 145.5 -44t50.5 -122v-229
q0 -44 6.5 -70.5t24.5 -56.5zM233 51q76 0 123.5 60t47.5 144v19l-161 -26q-115 -19 -115 -104q0 -43 28 -68t77 -25zM225 575l66 142h99l-103 -142h-62z" />
    <glyph glyph-name="acircumflex" unicode="&#xe2;" horiz-adv-x="556" 
d="M505 0h-70q-31 37 -31 108q-25 -58 -73 -90t-107 -32q-73 0 -120.5 43.5t-47.5 110.5q0 69 47.5 110.5t124.5 53.5l176 29v20q0 108 -126 108q-64 0 -95.5 -25t-31.5 -60q0 -9 2 -17l-60 -19q-8 19 -8 42q0 59 54.5 99.5t138.5 40.5q95 0 145.5 -44t50.5 -122v-229
q0 -44 6.5 -70.5t24.5 -56.5zM233 51q76 0 123.5 60t47.5 144v19l-161 -26q-115 -19 -115 -104q0 -43 28 -68t77 -25zM145 575l102 142h61l102 -142h-63l-69 75l-70 -75h-63z" />
    <glyph glyph-name="atilde" unicode="&#xe3;" horiz-adv-x="556" 
d="M505 0h-70q-31 37 -31 108q-25 -58 -73 -90t-107 -32q-73 0 -120.5 43.5t-47.5 110.5q0 69 47.5 110.5t124.5 53.5l176 29v20q0 108 -126 108q-64 0 -95.5 -25t-31.5 -60q0 -9 2 -17l-60 -19q-8 19 -8 42q0 59 54.5 99.5t138.5 40.5q95 0 145.5 -44t50.5 -122v-229
q0 -44 6.5 -70.5t24.5 -56.5zM233 51q76 0 123.5 60t47.5 144v19l-161 -26q-115 -19 -115 -104q0 -43 28 -68t77 -25zM196 645q-13 0 -22.5 -8.5t-9.5 -19.5q0 -13 6 -25l-54 -11q-12 18 -12 43q0 38 26.5 58.5t63.5 20.5q31 0 54 -10.5t34 -23.5t28 -23.5t37 -10.5
q13 0 22.5 8.5t9.5 19.5q0 13 -6 25l54 11q11 -17 11 -43q0 -38 -26 -58.5t-63 -20.5q-31 0 -54 10.5t-34 23.5t-28 23.5t-37 10.5z" />
    <glyph glyph-name="adieresis" unicode="&#xe4;" horiz-adv-x="556" 
d="M505 0h-70q-31 37 -31 108q-25 -58 -73 -90t-107 -32q-73 0 -120.5 43.5t-47.5 110.5q0 69 47.5 110.5t124.5 53.5l176 29v20q0 108 -126 108q-64 0 -95.5 -25t-31.5 -60q0 -9 2 -17l-60 -19q-8 19 -8 42q0 59 54.5 99.5t138.5 40.5q95 0 145.5 -44t50.5 -122v-229
q0 -44 6.5 -70.5t24.5 -56.5zM233 51q76 0 123.5 60t47.5 144v19l-161 -26q-115 -19 -115 -104q0 -43 28 -68t77 -25zM311 604v88h89v-88h-89zM155 604v88h89v-88h-89z" />
    <glyph glyph-name="aring" unicode="&#xe5;" horiz-adv-x="556" 
d="M505 0h-70q-31 37 -31 108q-25 -58 -73 -90t-107 -32q-73 0 -120.5 43.5t-47.5 110.5q0 69 47.5 110.5t124.5 53.5l176 29v20q0 108 -126 108q-64 0 -95.5 -25t-31.5 -60q0 -9 2 -17l-60 -19q-8 19 -8 42q0 59 54.5 99.5t138.5 40.5q95 0 145.5 -44t50.5 -122v-229
q0 -44 6.5 -70.5t24.5 -56.5zM233 51q76 0 123.5 60t47.5 144v19l-161 -26q-115 -19 -115 -104q0 -43 28 -68t77 -25zM227 650q0 -22 14.5 -36.5t36.5 -14.5t36 14.5t14 36.5t-14 36.5t-36 14.5t-36.5 -14.5t-14.5 -36.5zM179 650q0 41 29 69.5t70 28.5t69.5 -28.5
t28.5 -69.5t-28 -69t-70 -28t-70.5 28t-28.5 69z" />
    <glyph glyph-name="ae" unicode="&#xe6;" horiz-adv-x="942" 
d="M897 244h-426q3 -85 51.5 -141t129.5 -56q120 0 175 118l52 -31q-75 -148 -230 -148q-70 0 -126 37.5t-89 101.5q-27 -67 -86.5 -103t-125.5 -36q-73 0 -120.5 43.5t-47.5 110.5q0 163 252 163h93v44q0 114 -124 114q-64 0 -96 -24.5t-32 -59.5q0 -4 3 -16l-59 -20
q-8 19 -8 41q0 59 54 99.5t138 40.5q140 0 181 -99q78 99 196 99q111 0 178 -71t67 -183v-24zM231 51q80 0 122.5 52.5t45.5 140.5h-117q-79 0 -117.5 -28t-38.5 -72q0 -43 28 -68t77 -25zM652 461q-70 0 -117.5 -44.5t-59.5 -113.5h346q-4 73 -54 115.5t-115 42.5z" />
    <glyph glyph-name="ccedilla" unicode="&#xe7;" horiz-adv-x="570" 
d="M261 -105l-31 28l25 67q-93 15 -152 88t-59 176q0 116 76 192t182 76q82 0 140 -36.5t85 -102.5l-54 -34q-56 110 -170 110q-80 0 -133.5 -56t-53.5 -149q0 -94 52.5 -149.5t134.5 -55.5q62 0 103.5 29.5t72.5 86.5l51 -33q-34 -69 -93 -107.5t-135 -38.5l-21 -43
q21 12 46 12q33 0 54.5 -22t21.5 -57q0 -40 -26.5 -62.5t-65.5 -22.5q-34 0 -56.5 17t-29.5 46l46 11q11 -29 40 -29q18 0 29 10.5t11 29.5q0 17 -11 27.5t-30 10.5q-24 0 -49 -19z" />
    <glyph glyph-name="egrave" unicode="&#xe8;" horiz-adv-x="587" 
d="M543 244h-426q3 -85 51 -141t128 -56q122 0 177 118l51 -31q-75 -148 -231 -148q-105 0 -177.5 76t-72.5 192t74.5 192t178.5 76q115 0 181 -70.5t66 -183.5v-24zM296 461q-69 0 -116 -44.5t-59 -113.5h346q-3 74 -53 116t-118 42zM280 717l65 -142h-61l-104 142h100z
" />
    <glyph glyph-name="eacute" unicode="&#xe9;" horiz-adv-x="587" 
d="M543 244h-426q3 -85 51 -141t128 -56q122 0 177 118l51 -31q-75 -148 -231 -148q-105 0 -177.5 76t-72.5 192t74.5 192t178.5 76q115 0 181 -70.5t66 -183.5v-24zM296 461q-69 0 -116 -44.5t-59 -113.5h346q-3 74 -53 116t-118 42zM242 575l65 142h100l-104 -142h-61z
" />
    <glyph glyph-name="ecircumflex" unicode="&#xea;" horiz-adv-x="587" 
d="M543 244h-426q3 -85 51 -141t128 -56q122 0 177 118l51 -31q-75 -148 -231 -148q-105 0 -177.5 76t-72.5 192t74.5 192t178.5 76q115 0 181 -70.5t66 -183.5v-24zM296 461q-69 0 -116 -44.5t-59 -113.5h346q-3 74 -53 116t-118 42zM161 575l101 142h62l101 -142h-63
l-69 75l-70 -75h-62z" />
    <glyph glyph-name="edieresis" unicode="&#xeb;" horiz-adv-x="587" 
d="M543 244h-426q3 -85 51 -141t128 -56q122 0 177 118l51 -31q-75 -148 -231 -148q-105 0 -177.5 76t-72.5 192t74.5 192t178.5 76q115 0 181 -70.5t66 -183.5v-24zM296 461q-69 0 -116 -44.5t-59 -113.5h346q-3 74 -53 116t-118 42zM328 604v88h89v-88h-89zM171 604v88h89
v-88h-89z" />
    <glyph glyph-name="igrave" unicode="&#xec;" horiz-adv-x="235" 
d="M83 0v508h70v-508h-70zM87 717l66 -142h-62l-103 142h99z" />
    <glyph glyph-name="iacute" unicode="&#xed;" horiz-adv-x="235" 
d="M83 0v508h70v-508h-70zM83 575l65 142h100l-104 -142h-61z" />
    <glyph glyph-name="icircumflex" unicode="&#xee;" horiz-adv-x="235" 
d="M83 0v508h70v-508h-70zM-14 575l101 142h61l102 -142h-63l-69 75l-70 -75h-62z" />
    <glyph glyph-name="idieresis" unicode="&#xef;" horiz-adv-x="235" 
d="M83 0v508h70v-508h-70zM152 604v88h89v-88h-89zM-5 604v88h89v-88h-89z" />
    <glyph glyph-name="eth" unicode="&#xf0;" horiz-adv-x="593" 
d="M227 525l-20 57l102 40q-64 53 -143 85l33 53q103 -50 178 -113l100 39l22 -56l-75 -29q119 -132 119 -320q0 -149 -72.5 -222t-173.5 -73q-62 0 -116.5 25t-92 82t-37.5 136q0 116 73 180t167 64q56 0 106 -26.5t73 -65.5q-23 108 -111 196zM297 47q70 0 121 48.5
t51 133.5t-51.5 134t-120.5 49t-120.5 -49t-51.5 -134t51 -133.5t121 -48.5z" />
    <glyph glyph-name="ntilde" unicode="&#xf1;" horiz-adv-x="584" 
d="M504 343v-343h-70v335q0 60 -34 92t-95 32q-64 0 -109 -50t-45 -127v-282h-70v508h70v-92q25 48 73.5 77t104.5 29q76 0 125.5 -44.5t49.5 -134.5zM216 645q-13 0 -22.5 -8.5t-9.5 -19.5q0 -13 6 -25l-54 -11q-11 16 -11 43q0 38 26 58.5t63 20.5q40 0 65 -17t44.5 -34
t44.5 -17q13 0 22 8.5t9 19.5q0 13 -6 25l54 11q12 -18 12 -43q0 -38 -26 -58.5t-63 -20.5q-40 0 -65 17t-44.5 34t-44.5 17z" />
    <glyph glyph-name="ograve" unicode="&#xf2;" horiz-adv-x="616" 
d="M571 254q0 -123 -78.5 -195.5t-184.5 -72.5t-184.5 72.5t-78.5 195.5t78.5 195.5t184.5 72.5t184.5 -72.5t78.5 -195.5zM308 49q82 0 137 58t55 147t-55 147t-137 58t-136.5 -58t-54.5 -147t54.5 -147t136.5 -58zM285 717l65 -142h-61l-104 142h100z" />
    <glyph glyph-name="oacute" unicode="&#xf3;" horiz-adv-x="616" 
d="M571 254q0 -123 -78.5 -195.5t-184.5 -72.5t-184.5 72.5t-78.5 195.5t78.5 195.5t184.5 72.5t184.5 -72.5t78.5 -195.5zM308 49q82 0 137 58t55 147t-55 147t-137 58t-136.5 -58t-54.5 -147t54.5 -147t136.5 -58zM267 575l66 142h99l-103 -142h-62z" />
    <glyph glyph-name="ocircumflex" unicode="&#xf4;" horiz-adv-x="616" 
d="M571 254q0 -123 -78.5 -195.5t-184.5 -72.5t-184.5 72.5t-78.5 195.5t78.5 195.5t184.5 72.5t184.5 -72.5t78.5 -195.5zM308 49q82 0 137 58t55 147t-55 147t-137 58t-136.5 -58t-54.5 -147t54.5 -147t136.5 -58zM176 575l102 142h61l101 -142h-62l-70 75l-69 -75h-63z
" />
    <glyph glyph-name="otilde" unicode="&#xf5;" horiz-adv-x="616" 
d="M571 254q0 -123 -78.5 -195.5t-184.5 -72.5t-184.5 72.5t-78.5 195.5t78.5 195.5t184.5 72.5t184.5 -72.5t78.5 -195.5zM308 49q82 0 137 58t55 147t-55 147t-137 58t-136.5 -58t-54.5 -147t54.5 -147t136.5 -58zM232 645q-13 0 -22 -8.5t-9 -19.5q0 -13 6 -25l-54 -11
q-12 18 -12 43q0 38 26 58.5t63 20.5q40 0 65 -17t44.5 -34t44.5 -17q13 0 22.5 8.5t9.5 19.5q0 13 -6 25l54 11q11 -17 11 -43q0 -38 -26 -58.5t-63 -20.5q-40 0 -65 17t-44.5 34t-44.5 17z" />
    <glyph glyph-name="odieresis" unicode="&#xf6;" horiz-adv-x="616" 
d="M571 254q0 -123 -78.5 -195.5t-184.5 -72.5t-184.5 72.5t-78.5 195.5t78.5 195.5t184.5 72.5t184.5 -72.5t78.5 -195.5zM308 49q82 0 137 58t55 147t-55 147t-137 58t-136.5 -58t-54.5 -147t54.5 -147t136.5 -58zM342 604v88h89v-88h-89zM185 604v88h89v-88h-89z" />
    <glyph glyph-name="divide" unicode="&#xf7;" horiz-adv-x="518" 
d="M214 391v94h90v-94h-90zM214 0v94h90v-94h-90zM53 215v55h412v-55h-412z" />
    <glyph glyph-name="oslash" unicode="&#xf8;" horiz-adv-x="616" 
d="M571 254q0 -123 -78.5 -195.5t-184.5 -72.5q-52 0 -105 21l-24 -40l-56 31l23 41q-101 76 -101 215q0 123 78.5 195.5t184.5 72.5q53 0 106 -21l23 40l57 -31l-24 -41q101 -76 101 -215zM308 49q82 0 137 58t55 147q0 98 -65 156l-199 -347q36 -14 72 -14zM117 254
q0 -98 64 -156l200 346q-38 15 -73 15q-82 0 -136.5 -58t-54.5 -147z" />
    <glyph glyph-name="ugrave" unicode="&#xf9;" horiz-adv-x="584" 
d="M81 171v337h70v-335q0 -59 34.5 -91.5t90.5 -32.5q64 0 111 50.5t47 126.5v282h70v-508h-70v90q-25 -47 -71.5 -75.5t-103.5 -28.5q-75 0 -126.5 46t-51.5 139zM279 717l65 -142h-61l-104 142h100z" />
    <glyph glyph-name="uacute" unicode="&#xfa;" horiz-adv-x="584" 
d="M81 171v337h70v-335q0 -59 34.5 -91.5t90.5 -32.5q64 0 111 50.5t47 126.5v282h70v-508h-70v90q-25 -47 -71.5 -75.5t-103.5 -28.5q-75 0 -126.5 46t-51.5 139zM241 575l65 142h100l-104 -142h-61z" />
    <glyph glyph-name="ucircumflex" unicode="&#xfb;" horiz-adv-x="584" 
d="M81 171v337h70v-335q0 -59 34.5 -91.5t90.5 -32.5q64 0 111 50.5t47 126.5v282h70v-508h-70v90q-25 -47 -71.5 -75.5t-103.5 -28.5q-75 0 -126.5 46t-51.5 139zM160 575l101 142h62l101 -142h-63l-69 75l-70 -75h-62z" />
    <glyph glyph-name="udieresis" unicode="&#xfc;" horiz-adv-x="584" 
d="M81 171v337h70v-335q0 -59 34.5 -91.5t90.5 -32.5q64 0 111 50.5t47 126.5v282h70v-508h-70v90q-25 -47 -71.5 -75.5t-103.5 -28.5q-75 0 -126.5 46t-51.5 139zM326 604v88h89v-88h-89zM169 604v88h89v-88h-89z" />
    <glyph glyph-name="yacute" unicode="&#xfd;" horiz-adv-x="504" 
d="M60 -206l12 65q23 -10 39 -10q23 0 38 12.5t27 44.5l39 99l-207 503h78l166 -413l166 413h78l-260 -632q-39 -92 -124 -92q-29 0 -52 10zM198 575l65 142h99l-103 -142h-61z" />
    <glyph glyph-name="thorn" unicode="&#xfe;" horiz-adv-x="622" 
d="M81 -209v926h70v-300q25 44 75.5 74.5t108.5 30.5q108 0 174 -74.5t66 -193.5q0 -118 -67 -193t-175 -75q-56 0 -105 26.5t-77 71.5v-293h-70zM325 459q-77 0 -128.5 -57t-51.5 -148t51.5 -148t128.5 -57t128 56.5t51 148.5t-51 148.5t-128 56.5z" />
    <glyph glyph-name="ydieresis" unicode="&#xff;" horiz-adv-x="504" 
d="M60 -206l12 65q23 -10 39 -10q23 0 38 12.5t27 44.5l39 99l-207 503h78l166 -413l166 413h78l-260 -632q-39 -92 -124 -92q-29 0 -52 10zM285 604v88h89v-88h-89zM128 604v88h89v-88h-89z" />
    <glyph glyph-name="OE" unicode="&#x152;" horiz-adv-x="1184" 
d="M403 731q86 0 158 -37.5t108 -112.5v136h440v-66h-365v-248h336v-65h-336v-272h368v-66h-443v142q-91 -156 -266 -156q-146 0 -244.5 103.5t-98.5 268.5q0 166 98.5 269.5t244.5 103.5zM403 51q115 0 190.5 85.5t75.5 221.5t-75.5 222t-190.5 86t-190 -86t-75 -222
t75 -221.5t190 -85.5z" />
    <glyph glyph-name="oe" unicode="&#x153;" horiz-adv-x="1038" 
d="M993 244h-426q3 -85 51 -141t128 -56q123 0 178 118l51 -31q-75 -148 -232 -148q-66 0 -123 35t-88 93q-35 -60 -96 -94t-128 -34q-106 0 -184.5 72.5t-78.5 195.5t78.5 195.5t184.5 72.5q69 0 128.5 -34.5t95.5 -94.5q33 59 89 94t125 35q115 0 181 -70.5t66 -183.5v-24
zM308 49q82 0 137 58t55 147t-55 147t-137 58t-136.5 -58t-54.5 -147t54.5 -147t136.5 -58zM746 461q-69 0 -116 -44.5t-59 -113.5h347q-3 74 -53.5 116t-118.5 42z" />
    <glyph glyph-name="Ydieresis" unicode="&#x178;" horiz-adv-x="565" 
d="M245 0v296l-236 421h83l168 -314q13 -24 23 -49l22 49l169 314h83l-236 -421v-296h-76zM316 813v88h90v-88h-90zM160 813v88h89v-88h-89z" />
    <glyph glyph-name="circumflex" unicode="&#x2c6;" horiz-adv-x="387" 
d="M61 575l102 142h61l102 -142h-63l-69 75l-70 -75h-63z" />
    <glyph glyph-name="tilde" unicode="&#x2dc;" horiz-adv-x="483" 
d="M166 645q-13 0 -22.5 -8.5t-9.5 -19.5q0 -13 6 -25l-54 -11q-11 17 -11 43q0 38 26 58.5t63 20.5q31 0 54 -10.5t34 -23.5t28 -23.5t37 -10.5q13 0 22.5 8.5t9.5 19.5q0 13 -6 25l54 11q12 -18 12 -43q0 -38 -26.5 -58.5t-63.5 -20.5q-31 0 -54 10.5t-34 23.5t-28 23.5
t-37 10.5z" />
    <glyph glyph-name="uni2000" unicode="&#x2000;" horiz-adv-x="478" 
 />
    <glyph glyph-name="uni2001" unicode="&#x2001;" horiz-adv-x="956" 
 />
    <glyph glyph-name="uni2002" unicode="&#x2002;" horiz-adv-x="478" 
 />
    <glyph glyph-name="uni2003" unicode="&#x2003;" horiz-adv-x="956" 
 />
    <glyph glyph-name="uni2004" unicode="&#x2004;" horiz-adv-x="318" 
 />
    <glyph glyph-name="uni2005" unicode="&#x2005;" horiz-adv-x="239" 
 />
    <glyph glyph-name="uni2006" unicode="&#x2006;" horiz-adv-x="159" 
 />
    <glyph glyph-name="uni2007" unicode="&#x2007;" horiz-adv-x="159" 
 />
    <glyph glyph-name="uni2008" unicode="&#x2008;" horiz-adv-x="119" 
 />
    <glyph glyph-name="uni2009" unicode="&#x2009;" horiz-adv-x="191" 
 />
    <glyph glyph-name="uni200A" unicode="&#x200a;" horiz-adv-x="53" 
 />
    <glyph glyph-name="uni2010" unicode="&#x2010;" horiz-adv-x="466" 
d="M50 291v55h367v-55h-367z" />
    <glyph glyph-name="uni2011" unicode="&#x2011;" horiz-adv-x="466" 
d="M50 291v55h367v-55h-367z" />
    <glyph glyph-name="figuredash" unicode="&#x2012;" horiz-adv-x="466" 
d="M50 291v55h367v-55h-367z" />
    <glyph glyph-name="endash" unicode="&#x2013;" horiz-adv-x="529" 
d="M50 291v55h429v-55h-429z" />
    <glyph glyph-name="emdash" unicode="&#x2014;" horiz-adv-x="816" 
d="M50 291v55h716v-55h-716z" />
    <glyph glyph-name="quoteleft" unicode="&#x2018;" horiz-adv-x="200" 
d="M144 724l20 -13l-60 -112h36v-94h-91v94z" />
    <glyph glyph-name="quoteright" unicode="&#x2019;" horiz-adv-x="200" 
d="M56 498l-19 13l59 112h-36v94h92v-94z" />
    <glyph glyph-name="quotesinglbase" unicode="&#x201a;" horiz-adv-x="200" 
d="M56 -125l-19 13l59 112h-36v94h92v-94z" />
    <glyph glyph-name="quotedblleft" unicode="&#x201c;" horiz-adv-x="339" 
d="M144 724l20 -13l-60 -112h36v-94h-91v94zM285 724l19 -13l-59 -112h36v-94h-92v94z" />
    <glyph glyph-name="quotedblright" unicode="&#x201d;" horiz-adv-x="339" 
d="M197 498l-20 13l60 112h-36v94h91v-94zM56 498l-19 13l59 112h-36v94h92v-94z" />
    <glyph glyph-name="quotedblbase" unicode="&#x201e;" horiz-adv-x="339" 
d="M197 -125l-20 13l60 112h-36v94h91v-94zM56 -125l-19 13l59 112h-36v94h92v-94z" />
    <glyph glyph-name="bullet" unicode="&#x2022;" horiz-adv-x="292" 
d="M58 282q0 36 26 62t62 26t62 -26t26 -62t-26 -62t-62 -26t-62 26t-26 62z" />
    <glyph glyph-name="ellipsis" unicode="&#x2026;" horiz-adv-x="563" 
d="M421 0v94h90v-94h-90zM237 0v94h90v-94h-90zM52 0v94h90v-94h-90z" />
    <glyph glyph-name="uni202F" unicode="&#x202f;" horiz-adv-x="191" 
 />
    <glyph glyph-name="guilsinglleft" unicode="&#x2039;" horiz-adv-x="340" 
d="M214 483h86l-154 -201l154 -202h-86l-158 202z" />
    <glyph glyph-name="guilsinglright" unicode="&#x203a;" horiz-adv-x="340" 
d="M41 483h86l158 -201l-158 -202h-86l154 202z" />
    <glyph glyph-name="uni205F" unicode="&#x205f;" horiz-adv-x="239" 
 />
    <glyph glyph-name="Euro" unicode="&#x20ac;" horiz-adv-x="777" 
d="M48 407l26 57h60q27 121 110 194t197 73q103 0 174.5 -47.5t100.5 -143.5l-64 -26q-48 152 -211 152q-93 0 -150 -55.5t-79 -146.5h297l-26 -57h-279q-3 -23 -3 -49t3 -48h305l-26 -57h-271q21 -91 77.5 -146.5t149.5 -55.5q82 0 132.5 42.5t77.5 128.5l64 -22
q-29 -99 -98.5 -156.5t-175.5 -57.5q-122 0 -200.5 73.5t-104.5 193.5h-86l26 57h52q-3 23 -3 48q0 26 3 49h-78z" />
    <glyph glyph-name="trademark" unicode="&#x2122;" horiz-adv-x="868" 
d="M39 668v49h305v-49h-124v-361h-57v361h-124zM400 307v410h54l152 -355l153 355h53v-410h-51v305l-127 -305h-55l-127 305v-305h-52z" />
    <glyph glyph-name="uni25FC" unicode="&#x25fc;" horiz-adv-x="506" 
d="M0 507h507v-507h-507v507z" />
    </font>
</defs>
</svg>
