<?xml version="1.0" encoding="utf-8"?>
<!-- Generator: Adobe Illustrator 21.0.0, SVG Export Plug-In . SVG Version: 6.00 Build 0)  -->
<svg version="1.1" id="Layer_1" xmlns="http://www.w3.org/2000/svg" xmlns:xlink="http://www.w3.org/1999/xlink" x="0px" y="0px"
	 viewBox="0 0 573 252" style="enable-background:new 0 0 573 252;" xml:space="preserve">
<style type="text/css">
	.st0{enable-background:new    ;}
	.st1{fill:#212121;}
</style>
<g>
	<title>Aoife McArdle.</title>
	<desc>Created with Sketch.</desc>
	<g id="_x33_.-Facebook">
		<g id="Meta-Image" transform="translate(-109.000000, -245.000000)">
			<g class="st0">
				<path class="st1" d="M201,326.9h-37l-9.3,26.2h-12.5l34.3-90.6h12l34.3,90.6h-12.5L201,326.9z M197.5,316.7l-12.6-35.3
					c-0.8-2-1.5-4.2-2.2-6.9h-0.3c-0.6,2.7-1.4,4.8-2.2,6.9l-12.6,35.3H197.5z"/>
				<path class="st1" d="M230.5,321.2c0-20.8,11.7-33.4,29.7-33.4c18,0,29.7,12.6,29.7,33.4s-11.7,33.4-29.7,33.4
					C242.2,354.6,230.5,342,230.5,321.2z M278.5,321.2c0-15.8-6.8-24-18.2-24c-11.5,0-18.2,8.2-18.2,24c0,15.8,6.8,24,18.2,24
					C271.7,345.2,278.5,337,278.5,321.2z"/>
				<path class="st1" d="M306.4,263.8h12.4v13.6h-12.4V263.8z M307.2,289.3H318v63.8h-10.8V289.3z"/>
				<path class="st1" d="M370.6,298.2h-15.9v54.9h-10.8v-54.9H332v-8.9h11.7v-10.1c0-11.6,7.3-19.4,18.6-19.4c3.1,0,5.7,0.3,8.2,0.9
					v9.3c-2.3-0.4-4.7-0.6-6.8-0.6c-6.5,0-9.2,3.6-9.2,11.4v8.5h15.9V298.2z"/>
				<path class="st1" d="M432.4,324.4h-45.3c0.1,12.5,7.7,20.7,19,20.7c8.2,0,14.2-4.3,17-12.1l8.9,4c-4.5,11.6-13.8,17.7-26.7,17.7
					c-18.2,0-29.1-11.6-29.1-32.7c0-21.3,10.7-34.2,29-34.2c17.2,0,27.2,9.8,27.2,29V324.4z M421.5,314.2c0-11.7-6-17.9-16.5-17.9
					c-11.2,0-17.6,7.3-17.9,19.3h34.3V314.2z"/>
			</g>
			<g class="st0">
				<path class="st1" d="M152.4,390.1h17.2l24,69.6c1.5,4.5,1.8,5.2,2.3,8.5h0.3c0.5-3.3,0.8-4.1,2.3-8.5l24-69.6h17.2v90.6h-11.1
					v-69.9c0-3.7,0.1-6.8,0.5-9.7h-0.5c-0.3,1.8-1.5,7.3-2.7,10.3l-24,69.3h-11.7l-24-69.3c-1.1-3.1-2.4-8.5-2.7-10.3H163
					c0.4,2.9,0.5,6,0.5,9.7v69.9h-11.1V390.1z"/>
				<path class="st1" d="M258.2,448.8c0-20.8,11.2-33.4,29.3-33.4c14.9,0,24.6,8.5,26.3,23.2l-11.1,1.3c-1.1-9.7-6.8-15.1-15.4-15.1
					c-11,0-17.6,8.9-17.6,23.9c0,15.3,6.6,24.1,18,24.1c8.7,0,14-5.2,15.7-15.2l10.3,1.7c-2.3,14.5-11.9,23-26.2,23
					C269.7,482.2,258.2,469.2,258.2,448.8z"/>
				<path class="st1" d="M380.9,454.5h-37l-9.3,26.2h-12.5l34.3-90.6h12l34.3,90.6h-12.5L380.9,454.5z M377.3,444.3L364.7,409
					c-0.8-2-1.5-4.2-2.2-6.9h-0.3c-0.6,2.7-1.4,4.8-2.2,6.9l-12.6,35.3H377.3z"/>
				<path class="st1" d="M446.2,415.3c0.8,0,1.5,0,2.3,0.1V426H448c-6.6,0-11,1.9-14,5c-6.1,6.1-6.4,14.7-6.4,22.3v27.3h-10.8v-63.8
					h10.1v14.5C429.9,422.5,436.5,415.3,446.2,415.3z"/>
				<path class="st1" d="M454.9,448.8c0-19.6,11.2-33.4,27.2-33.4c8.4,0,14.7,3.4,18.8,11v-38.1h10.8v92.5h-10.2v-11.9
					c-3.8,8.5-10.7,13.4-20.7,13.4C465.3,482.2,454.9,468.8,454.9,448.8z M501.1,450.3v-2.9c0-13.9-6.6-22.5-17.3-22.5
					c-10.8,0-17.3,8.8-17.3,23.9c0,14.9,6.5,23.9,17.3,23.9C494.3,472.6,501.1,463.9,501.1,450.3z"/>
				<path class="st1" d="M546.7,480.6h-10.8v-92.5h10.8V480.6z"/>
				<path class="st1" d="M620.7,451.9h-45.3c0.1,12.5,7.7,20.7,19,20.7c8.2,0,14.2-4.3,17-12.1l8.9,4c-4.5,11.6-13.8,17.7-26.7,17.7
					c-18.2,0-29.1-11.6-29.1-32.7c0-21.3,10.7-34.2,29-34.2c17.2,0,27.2,9.8,27.2,29V451.9z M609.7,441.7c0-11.7-6-17.9-16.5-17.9
					c-11.2,0-17.6,7.3-17.9,19.3h34.3V441.7z"/>
				<path class="st1" d="M649.7,480.6h-14.9v-15.1h14.9V480.6z"/>
			</g>
		</g>
	</g>
</g>
</svg>
