<svg aria-hidden="true" style="position: absolute; width: 0; height: 0; overflow: hidden;" version="1.1" xmlns="http://www.w3.org/2000/svg" xmlns:xlink="http://www.w3.org/1999/xlink">
<defs>
<symbol id="icon-staff-pick" viewBox="0 0 32 32">
<path d="M19.232 3.128c0.128 0 0.232-0.080 0.32-0.224 0.072-0.12 0.112-0.248 0.12-0.384 0-0.080-0.008-0.144-0.032-0.208s-0.056-0.096-0.104-0.096c-0.144 0-0.264 0.080-0.352 0.232-0.080 0.12-0.12 0.256-0.12 0.408 0 0.072 0.016 0.128 0.040 0.184 0.032 0.056 0.072 0.088 0.128 0.088z"></path>
<path d="M15.616 13.696h0.864l-0.448-4.192z"></path>
<path d="M11.2 20.352h0.832l0.032-2.208h-0.864z"></path>
<path d="M16 0c-8.84 0-16 7.16-16 16s7.16 16 16 16 16-7.16 16-16-7.16-16-16-16zM30.544 14.168c0 0.024 0.008 0.048 0.008 0.072l0.040 0.424c0.008 0.056 0.008 0.112 0.016 0.168 0.008 0.104 0.016 0.192 0.016 0.272l0.008 0.184c-0.040 0.056-0.208 0.28-0.376 0.496-0.096 0.12-0.2 0.248-0.272 0.328l-0.048 0.056v-0.064c0.008-0.112 0.008-0.248 0-0.392l-0.016-0.608c0.008-0.008 0.016-0.016 0.024-0.032l0.080-0.112c0.064-0.096 0.152-0.224 0.24-0.36 0.088-0.128 0.176-0.264 0.24-0.368 0.016-0.024 0.032-0.048 0.040-0.064zM30.384 13.176c0.024 0.104 0.040 0.2 0.056 0.288 0.008 0.048 0.016 0.096 0.024 0.136l0.024 0.176-0.192 0.336c-0.024 0.048-0.056 0.096-0.088 0.144l-0.040 0.056c-0.104 0.16-0.216 0.32-0.28 0.416l-0.048-0.472c-0.008-0.096-0.024-0.192-0.040-0.28 0-0.048-0.008-0.088-0.016-0.128l-0.024-0.168 0.192-0.336 0.104-0.2c0.080-0.168 0.168-0.344 0.224-0.456l0.104 0.488zM29.848 11.296l0.024-0.072 0.088 0.256c0.016 0.040 0.024 0.088 0.040 0.136 0.008 0.024 0.016 0.056 0.024 0.080l0.168 0.592c-0.016 0.024-0.040 0.088-0.080 0.168-0.048 0.104-0.12 0.248-0.192 0.392s-0.144 0.28-0.2 0.384c-0.008 0.024-0.024 0.048-0.032 0.064l-0.104-0.464c-0.008-0.040-0.016-0.088-0.024-0.128-0.016-0.096-0.040-0.2-0.064-0.272l-0.048-0.16c0.024-0.056 0.136-0.304 0.248-0.568 0.048-0.112 0.088-0.216 0.12-0.312 0.008-0.032 0.024-0.064 0.032-0.096zM29.368 13.312c-0.088-0.072-0.216-0.168-0.336-0.256-0.128-0.088-0.248-0.176-0.336-0.24-0.064-0.048-0.12-0.080-0.144-0.096l-0.144-0.52c0-0.024-0.008-0.048-0.016-0.072-0.016-0.048-0.024-0.088-0.040-0.128l-0.080-0.224 0.064 0.032c0.024 0.016 0.048 0.032 0.080 0.048 0.088 0.048 0.184 0.104 0.28 0.16 0.216 0.144 0.44 0.288 0.496 0.328l0.048 0.168c0.024 0.072 0.040 0.168 0.064 0.264 0.008 0.040 0.016 0.088 0.024 0.128l0.096 0.456c-0.016-0.016-0.032-0.032-0.056-0.048zM29.488 13.72l0.024 0.168c0.008 0.040 0.016 0.080 0.032 0.112 0.016 0.088 0.032 0.176 0.040 0.272l0.040 0.464c-0.080-0.088-0.216-0.216-0.352-0.344l-0.048-0.040c-0.040-0.032-0.080-0.072-0.12-0.104l-0.28-0.232-0.024-0.152c0-0.040-0.008-0.080-0.016-0.12-0.016-0.080-0.032-0.168-0.048-0.256l-0.096-0.432c0.096 0.064 0.24 0.176 0.392 0.288l0.144 0.112 0.312 0.264zM28.864 11.848l-0.192-0.112c-0.224-0.136-0.456-0.256-0.512-0.288l-0.056-0.152-0.296-0.704-0.024-0.048 0.064 0.024c0.080 0.032 0.184 0.080 0.296 0.136l0.072 0.032c0.232 0.112 0.48 0.24 0.536 0.272l0.016 0.032c0.008 0.016 0.016 0.040 0.024 0.064l0.152 0.44c0.016 0.040 0.024 0.080 0.040 0.12 0.040 0.096 0.072 0.184 0.088 0.264l0.016 0.064-0.224-0.144zM28.168 10.448c-0.104-0.056-0.216-0.096-0.304-0.136l-0.24-0.096-0.144-0.304c-0.024-0.040-0.040-0.072-0.064-0.112l-0.256-0.448c0.104 0.040 0.28 0.096 0.456 0.16 0.144 0.048 0.288 0.104 0.392 0.144l0.16 0.064 0.256 0.512c0.040 0.088 0.080 0.176 0.112 0.256 0.016 0.048 0.032 0.088 0.048 0.12l0.024 0.056c-0.104-0.056-0.272-0.136-0.44-0.216zM27.368 22.192c0.016-0.016 0.024-0.032 0.032-0.048 0.008 0.016 0.008 0.040 0.016 0.064 0.024 0.104 0.048 0.248 0.080 0.4 0.024 0.12 0.056 0.288 0.080 0.416l0.024 0.176-0.088 0.128c-0.024 0.032-0.048 0.064-0.072 0.104-0.048 0.072-0.096 0.152-0.152 0.232l-0.272 0.384c0-0.024-0.008-0.048-0.008-0.072-0.008-0.112-0.024-0.264-0.040-0.416-0.016-0.184-0.032-0.32-0.048-0.416l-0.024-0.168 0.184-0.28c0.024-0.032 0.040-0.072 0.064-0.112l0.224-0.392zM27.56 21.832l0.072-0.136c0.040-0.072 0.080-0.16 0.12-0.256l0.040-0.096c0.024-0.048 0.040-0.096 0.064-0.144 0.040-0.080 0.072-0.144 0.096-0.208l0.024-0.056 0.024 0.064c0.032 0.080 0.064 0.184 0.096 0.296l0.032 0.096c0.048 0.152 0.088 0.296 0.12 0.408 0.016 0.080 0.032 0.136 0.040 0.168l-0.264 0.512-0.232 0.408c-0.024-0.112-0.056-0.304-0.096-0.48-0.024-0.128-0.056-0.248-0.080-0.352l-0.056-0.224zM28.112 20.592l0.056-0.144c0.016-0.056 0.048-0.136 0.072-0.216 0.016-0.048 0.032-0.096 0.048-0.144s0.032-0.088 0.048-0.136c0.032-0.080 0.056-0.16 0.072-0.224l0.016-0.056 0.032 0.064c0.048 0.096 0.104 0.232 0.168 0.376 0.096 0.24 0.192 0.496 0.232 0.544l-0.208 0.536c-0.040 0.088-0.080 0.176-0.112 0.256-0.024 0.040-0.040 0.080-0.056 0.112l-0.024 0.056c-0.040-0.112-0.088-0.296-0.144-0.472-0.088-0.248-0.176-0.488-0.2-0.552zM28.768 19.848c-0.112-0.24-0.224-0.464-0.256-0.528 0.008-0.024 0.024-0.080 0.040-0.152l0.088-0.368c0.032-0.144 0.064-0.272 0.080-0.376l0.008-0.056 0.040 0.064c0.064 0.112 0.144 0.232 0.208 0.36 0.128 0.224 0.248 0.464 0.28 0.528 0 0.024-0.016 0.088-0.040 0.16l-0.112 0.376c-0.032 0.12-0.072 0.232-0.104 0.328l-0.040 0.12-0.056-0.136c-0.040-0.096-0.088-0.208-0.136-0.32zM29.112 18.544c-0.128-0.232-0.264-0.448-0.304-0.504l0.008-0.032c0.008-0.048 0.008-0.088 0.016-0.128l0.072-0.584 0.016-0.232 0.096 0.12c0.064 0.080 0.128 0.168 0.192 0.264 0.144 0.216 0.288 0.44 0.328 0.496l-0.008 0.032c0 0.032-0.008 0.072-0.016 0.128l-0.112 0.624-0.056 0.248-0.072-0.144c-0.048-0.088-0.096-0.184-0.16-0.288zM29.296 17.168c-0.152-0.208-0.312-0.408-0.352-0.464 0-0.032 0.008-0.088 0.008-0.16l0.016-0.592-0.008-0.232 0.048 0.048c0.024 0.024 0.048 0.048 0.072 0.072 0.064 0.072 0.144 0.152 0.208 0.232 0.168 0.2 0.336 0.408 0.376 0.464v0.032c0 0.008 0 0.024 0 0.040-0.008 0.032-0.008 0.064-0.008 0.096l-0.032 0.408c-0.008 0.136-0.024 0.288-0.040 0.4l-0.008 0.064-0.040-0.064c-0.056-0.088-0.144-0.216-0.24-0.344zM29.624 16.112c-0.072-0.080-0.168-0.2-0.28-0.32-0.176-0.2-0.352-0.384-0.4-0.432l-0.008-0.16c0-0.064-0.008-0.144-0.016-0.232-0.008-0.048-0.008-0.104-0.016-0.152l-0.032-0.376c-0.008-0.024-0.008-0.048-0.008-0.064 0.016 0.016 0.032 0.032 0.048 0.048 0.088 0.072 0.192 0.176 0.304 0.28s0.224 0.216 0.304 0.296l0.104 0.096c0.008 0.008 0.016 0.016 0.024 0.024l0.024 0.608c0 0.144 0.008 0.272 0 0.376v0.064l-0.048-0.056zM29.192 10.248c0.040-0.136 0.072-0.256 0.096-0.352l0.016-0.072 0.032 0.064 0.328 0.792 0.064 0.168c-0.024 0.064-0.112 0.328-0.208 0.584l-0.080 0.216-0.112 0.256-0.016-0.056c-0.016-0.080-0.056-0.168-0.088-0.272-0.016-0.040-0.024-0.080-0.040-0.12l-0.152-0.44c-0.008-0.024-0.016-0.048-0.024-0.072l-0.016-0.032c0.016-0.064 0.104-0.32 0.176-0.584l0.024-0.080zM28.528 8.992c0.032-0.184 0.064-0.384 0.080-0.504l0.288 0.512c0.024 0.040 0.048 0.088 0.072 0.128l0.168 0.336-0.064 0.272c-0.024 0.104-0.048 0.216-0.080 0.328-0.056 0.192-0.112 0.376-0.144 0.488l-0.024-0.056c-0.016-0.040-0.032-0.080-0.048-0.12-0.032-0.080-0.072-0.176-0.112-0.264l-0.256-0.52 0.040-0.176c0.024-0.112 0.056-0.264 0.080-0.424zM27.712 8.12c0.016-0.104 0.024-0.24 0.032-0.368 0.016-0.192 0.016-0.392 0.024-0.512l0.296 0.4 0.344 0.528c-0.008 0.064-0.032 0.344-0.080 0.616-0.032 0.192-0.064 0.376-0.088 0.496l-0.232-0.416c-0.056-0.104-0.112-0.192-0.168-0.272-0.024-0.024-0.040-0.056-0.056-0.080l-0.096-0.144 0.024-0.248zM27.608 8.712c0.056 0.080 0.112 0.168 0.16 0.264l0.232 0.408c-0.112-0.040-0.288-0.112-0.464-0.168-0.24-0.088-0.496-0.16-0.56-0.176l-0.296-0.456-0.264-0.352c0.112 0.024 0.296 0.064 0.48 0.104 0.12 0.024 0.232 0.056 0.336 0.088l0.232 0.072 0.088 0.144c0.016 0.032 0.032 0.056 0.056 0.072zM26.128 24.232l-0.008-0.168 0.096-0.128c0.016-0.032 0.048-0.064 0.072-0.096 0.048-0.064 0.112-0.136 0.16-0.208l0.256-0.36 0.008 0.072c0.008 0.104 0.024 0.256 0.040 0.408 0.016 0.144 0.032 0.304 0.032 0.416l0.008 0.176-0.104 0.136c-0.080 0.104-0.16 0.208-0.256 0.312l-0.256 0.304c-0.016 0.016-0.024 0.032-0.040 0.048 0-0.024 0-0.048 0-0.072 0-0.12 0-0.272 0-0.424 0-0.16 0-0.304-0.008-0.416zM26.992 6.272c0.032 0.032 0.064 0.072 0.096 0.112l0.456 0.536-0.008 0.184c0 0.12-0.008 0.28-0.016 0.44-0.008 0.152-0.016 0.312-0.024 0.424 0 0.024-0.008 0.048-0.008 0.072-0.016-0.016-0.024-0.040-0.040-0.056l-0.24-0.328c-0.032-0.040-0.064-0.088-0.096-0.128-0.056-0.072-0.104-0.144-0.152-0.2l-0.112-0.128c0-0.072 0-0.344-0.008-0.616 0-0.12-0.008-0.232-0.016-0.328 0-0.040-0.008-0.080-0.008-0.112l-0.008-0.072 0.184 0.2zM26.744 7.488c0.048 0.048 0.096 0.12 0.152 0.192 0.032 0.040 0.064 0.088 0.096 0.128l0.24 0.328c0.008 0.016 0.024 0.032 0.032 0.048-0.024 0-0.048-0.008-0.072-0.016-0.12-0.024-0.264-0.064-0.416-0.096s-0.296-0.064-0.408-0.088l-0.168-0.032-0.392-0.472c-0.032-0.040-0.056-0.072-0.088-0.104l-0.16-0.168 0.072 0.008c0.032 0 0.064 0.008 0.104 0.008 0.096 0.008 0.208 0.024 0.312 0.040 0.256 0.040 0.52 0.080 0.584 0.096l0.112 0.128zM25.888 25.224l-0.008 0.216-0.12 0.12c-0.056 0.064-0.136 0.136-0.216 0.216l-0.072 0.064c-0.040 0.032-0.072 0.072-0.112 0.104-0.072 0.064-0.128 0.12-0.184 0.168l-0.048 0.040c0.016-0.12 0.040-0.312 0.056-0.496 0.008-0.152 0.024-0.304 0.032-0.416 0.008-0.088 0.008-0.144 0.008-0.176l0.376-0.392 0.288-0.336c0.008 0.12 0.008 0.304 0.008 0.512 0.008 0.136 0 0.272-0.008 0.376zM25.784 5.048l0.632 0.608 0.128 0.136c0.008 0.064 0.032 0.344 0.048 0.616v0.064c0 0.056 0.008 0.104 0.008 0.16v0.272l-0.040-0.048c-0.064-0.080-0.144-0.168-0.232-0.264l-0.384-0.408-0.064-0.064c-0.008-0.072-0.032-0.336-0.072-0.608l-0.016-0.096c-0.016-0.128-0.032-0.248-0.048-0.344l-0.016-0.072 0.056 0.048zM26.144 6.784c0.088 0.088 0.168 0.176 0.224 0.248l0.040 0.048-0.264-0.040c-0.056-0.008-0.112-0.016-0.168-0.024l-0.064-0.008c-0.264-0.032-0.52-0.048-0.584-0.056l-0.112-0.12-0.544-0.52-0.040-0.032h0.072c0.088 0 0.2 0 0.312 0.008h0.096c0.264 0.008 0.536 0.024 0.6 0.032l0.432 0.464zM23.904 8.512v0.992h-1.472v2.112h1.024v0.992h-1.024v3.584h-0.992v-7.68h2.464zM22.456 4.696l0.072-0.016c0.080-0.016 0.192-0.040 0.304-0.056l0.096-0.016c0.256-0.040 0.528-0.080 0.592-0.088l0.52 0.368c0.104 0.072 0.2 0.136 0.272 0.2l0.048 0.040-0.264 0.008c-0.056 0.008-0.112 0.008-0.168 0.016l-0.064 0.008c-0.264 0.024-0.52 0.056-0.584 0.064l-0.128-0.088-0.648-0.416-0.048-0.024zM22.144 27.384c0.056-0.032 0.128-0.072 0.2-0.112 0.048-0.032 0.088-0.056 0.136-0.080l0.096-0.056c0.088-0.048 0.176-0.104 0.24-0.144l0.048-0.032-0.072 0.256-0.072 0.208c-0.080 0.24-0.176 0.496-0.2 0.56-0.008 0-0.016 0.008-0.032 0.016l-0.472 0.24c-0.080 0.048-0.168 0.088-0.248 0.12-0.048 0.024-0.088 0.040-0.12 0.056l-0.056 0.024c0.056-0.112 0.136-0.28 0.208-0.448 0.104-0.24 0.192-0.488 0.2-0.536l0.144-0.072zM22.904 27.64c0.032-0.096 0.072-0.2 0.104-0.312 0.072-0.256 0.144-0.504 0.16-0.568l0.024-0.016c0.024-0.016 0.064-0.040 0.104-0.072l0.32-0.216c0.024-0.016 0.040-0.032 0.064-0.048 0.032-0.024 0.072-0.048 0.104-0.072l0.184-0.144-0.016 0.072c-0.008 0.032-0.008 0.064-0.016 0.096-0.016 0.096-0.040 0.208-0.064 0.312-0.056 0.248-0.128 0.512-0.144 0.576l-0.032 0.024c-0.032 0.016-0.064 0.040-0.112 0.072l-0.344 0.216c-0.016 0.008-0.040 0.024-0.064 0.040-0.040 0.024-0.072 0.048-0.112 0.072l-0.216 0.128 0.056-0.16zM23.56 5.44c0.112-0.008 0.296-0.024 0.48-0.040 0.152-0.008 0.312-0.016 0.424-0.024h0.176l0.44 0.368c0.072 0.056 0.136 0.128 0.2 0.184 0.040 0.032 0.072 0.064 0.096 0.088l0.048 0.040c-0.12-0.008-0.304-0.016-0.488-0.024-0.048 0-0.088 0-0.128 0-0.080 0-0.152 0-0.216 0l-0.248 0.008-0.256-0.216-0.528-0.384zM24.096 26.76l0.048-0.224c0.048-0.256 0.096-0.512 0.104-0.576 0.008-0.008 0.016-0.016 0.024-0.024l0.384-0.328c0.072-0.056 0.136-0.12 0.192-0.176 0.032-0.024 0.064-0.056 0.088-0.080l0.040-0.040c-0.008 0.12-0.024 0.304-0.040 0.488-0.032 0.256-0.080 0.52-0.088 0.584l-0.128 0.112c-0.056 0.040-0.12 0.096-0.192 0.152-0.040 0.032-0.080 0.064-0.12 0.096l-0.072 0.056c-0.088 0.072-0.176 0.136-0.248 0.184l-0.056 0.040 0.064-0.264zM25.128 4.496l0.304 0.248 0.048 0.264c0.024 0.104 0.048 0.224 0.064 0.344 0.024 0.192 0.048 0.384 0.064 0.504l-0.048-0.048c-0.032-0.024-0.064-0.056-0.096-0.088-0.064-0.056-0.136-0.128-0.208-0.192l-0.44-0.376-0.032-0.176c-0.024-0.112-0.056-0.264-0.096-0.416-0.048-0.184-0.096-0.376-0.128-0.496l0.568 0.432zM24.096 3.72l0.152 0.104c0.016 0.064 0.096 0.336 0.168 0.6l0.016 0.064c0.016 0.056 0.032 0.112 0.040 0.16l0.056 0.272-0.048-0.040c-0.072-0.064-0.176-0.136-0.28-0.208l-0.464-0.328-0.072-0.048c-0.024-0.064-0.104-0.32-0.192-0.576l-0.032-0.096c-0.048-0.12-0.080-0.232-0.12-0.32l-0.016-0.072 0.792 0.488zM22.528 3.376l0.8 0.896-1.184-0.128-0.8-0.896 1.184 0.128zM20.32 11.616v0.992h-1.024v3.584h-0.992v-7.68h2.464v0.992h-1.472v2.112h1.024zM14.024 1.232c0.080-0.064 0.176-0.096 0.272-0.096 0.056 0 0.104 0.024 0.144 0.072 0.040 0.040 0.056 0.088 0.056 0.136 0 0.072-0.040 0.136-0.104 0.2-0.072 0.072-0.16 0.104-0.264 0.104-0.16 0-0.24-0.072-0.232-0.208 0.008-0.072 0.048-0.144 0.128-0.208zM12.176 2.032c0.12-0.104 0.208-0.16 0.272-0.168 0.144-0.016 0.232 0.088 0.264 0.296 0.032 0.224 0.056 0.368 0.072 0.424 0.040 0.184 0.088 0.28 0.136 0.28 0.040 0 0.096-0.064 0.176-0.184s0.12-0.216 0.128-0.28c0.008-0.104-0.032-0.16-0.128-0.16-0.040 0-0.088 0.008-0.136 0.032 0.088-0.296 0.264-0.44 0.52-0.432 0.168 0.008 0.256 0.104 0.264 0.304 0.048-0.040 0.088-0.072 0.128-0.112 0.12-0.104 0.208-0.16 0.264-0.168 0.088-0.008 0.16 0.016 0.2 0.080 0.040 0.056 0.056 0.144 0.048 0.24-0.040 0.168-0.080 0.384-0.12 0.64 0 0.12 0.040 0.176 0.128 0.176 0.040 0 0.112-0.040 0.208-0.12 0.008 0 0.008 0 0.008 0 0.008-0.064 0.016-0.128 0.032-0.208 0.024-0.136 0.040-0.232 0.040-0.304 0-0.048-0.008-0.072-0.040-0.072-0.016 0-0.064 0.032-0.144 0.088l-0.096-0.112c0.016-0.008 0.104-0.088 0.264-0.24 0.12-0.112 0.2-0.168 0.24-0.168 0.072-0.008 0.128 0.024 0.176 0.088 0.040 0.064 0.064 0.136 0.064 0.224 0 0.032 0 0.056-0.008 0.080 0.040-0.064 0.088-0.12 0.144-0.168 0.128-0.104 0.272-0.168 0.432-0.184 0.136-0.008 0.232 0.024 0.288 0.096 0.048 0.064 0.064 0.152 0.064 0.264 0.024-0.016 0.040-0.040 0.064-0.056 0.064-0.072 0.12-0.128 0.184-0.176 0.104-0.080 0.208-0.12 0.32-0.128 0.136-0.008 0.232 0.024 0.288 0.096 0.048 0.064 0.072 0.152 0.064 0.264 0 0.072-0.024 0.192-0.056 0.336-0.040 0.152-0.056 0.232-0.056 0.256 0 0.056 0 0.096 0.016 0.12 0.008 0.024 0.040 0.032 0.096 0.032 0.024 0 0.056-0.016 0.104-0.048-0.008-0.032-0.008-0.064-0.008-0.104 0-0.224 0.096-0.44 0.296-0.64 0.216-0.224 0.472-0.336 0.768-0.336 0.272 0 0.416 0.104 0.432 0.328 0.008 0.136-0.064 0.28-0.232 0.432-0.184 0.168-0.4 0.264-0.672 0.312 0.048 0.072 0.12 0.104 0.224 0.104 0.192 0 0.416-0.048 0.648-0.152 0.008-0.008 0.024-0.008 0.032-0.016 0-0.016-0.008-0.032-0.008-0.048-0.016-0.24 0.072-0.456 0.256-0.656 0.2-0.216 0.448-0.328 0.752-0.328 0.192 0 0.344 0.064 0.44 0.192 0.096 0.12 0.136 0.28 0.128 0.464-0.008 0.248-0.104 0.472-0.28 0.656-0.184 0.184-0.4 0.28-0.664 0.28-0.216 0-0.384-0.064-0.496-0.208-0.024-0.032-0.048-0.064-0.064-0.104-0.032 0.016-0.064 0.040-0.096 0.056-0.296 0.168-0.592 0.256-0.896 0.256-0.224 0-0.384-0.072-0.48-0.224-0.008-0.008-0.008-0.024-0.016-0.032l-0.008 0.008c-0.192 0.16-0.376 0.24-0.56 0.24s-0.272-0.096-0.264-0.296c0-0.088 0.016-0.192 0.048-0.32 0.024-0.12 0.048-0.216 0.048-0.288 0-0.104-0.032-0.16-0.096-0.16-0.072 0-0.16 0.088-0.256 0.256-0.104 0.176-0.16 0.352-0.168 0.52-0.008 0.12 0 0.208 0.032 0.272-0.192 0.008-0.328-0.024-0.408-0.096-0.072-0.064-0.104-0.16-0.096-0.304 0-0.088 0.016-0.176 0.040-0.264s0.040-0.168 0.040-0.24c0.008-0.104-0.032-0.152-0.112-0.152-0.072 0-0.144 0.080-0.224 0.24s-0.128 0.328-0.136 0.496c0 0.152 0.008 0.256 0.032 0.32-0.192 0.008-0.328-0.032-0.408-0.12-0.032-0.040-0.056-0.088-0.072-0.152-0.016 0.016-0.032 0.032-0.048 0.048-0.192 0.16-0.376 0.24-0.56 0.24-0.088 0-0.152-0.024-0.2-0.080s-0.064-0.128-0.064-0.216c0.008-0.096 0.032-0.232 0.088-0.424 0.056-0.184 0.080-0.288 0.080-0.304 0-0.072-0.024-0.104-0.072-0.104-0.016 0-0.056 0.032-0.128 0.080-0.056 0.16-0.168 0.352-0.344 0.576-0.256 0.328-0.464 0.488-0.64 0.488-0.104 0-0.2-0.096-0.272-0.296-0.056-0.176-0.104-0.36-0.152-0.544-0.056-0.2-0.112-0.296-0.176-0.296-0.016 0-0.064 0.024-0.104 0.064l-0.088-0.112c0.096-0.080 0.184-0.16 0.272-0.24zM10.976 9.152c0 0 0 0 0 0.032v1.6h-0.992v-1.28h-0.832v2.24h1.152c0.352 0 0.64 0.288 0.672 0.64v3.2c0 0.352-0.288 0.64-0.672 0.64h-1.504c-0.352 0-0.64-0.288-0.64-0.64v-1.664h0.96v1.28h0.832v-2.464h-1.152c-0.352 0-0.64-0.288-0.64-0.64v-2.912c0-0.352 0.256-0.64 0.608-0.64 0 0 0 0 0.032 0h1.504c0.352 0 0.64 0.256 0.672 0.608zM7.904 5.816l-0.256 0.216-0.248-0.008c-0.104 0-0.224 0-0.344 0-0.184 0.008-0.368 0.016-0.488 0.024l0.048-0.040c0.032-0.024 0.064-0.056 0.096-0.088 0.056-0.056 0.128-0.12 0.2-0.184l0.44-0.368h0.176c0.12 0.008 0.272 0.016 0.424 0.024 0.184 0.016 0.368 0.032 0.48 0.040l-0.528 0.384zM7.976 27.024l-0.056-0.040c-0.072-0.048-0.16-0.112-0.248-0.184l-0.072-0.056c-0.040-0.032-0.080-0.064-0.12-0.096-0.072-0.056-0.136-0.104-0.192-0.152l-0.128-0.112c-0.016-0.064-0.056-0.328-0.088-0.584-0.016-0.192-0.032-0.376-0.040-0.488l0.040 0.040c0.024 0.024 0.056 0.048 0.088 0.080 0.056 0.056 0.12 0.12 0.192 0.176l0.384 0.336c0.008 0.016 0.016 0.016 0.024 0.024 0.008 0.064 0.056 0.32 0.104 0.576l0.048 0.224 0.064 0.256zM7.624 5.128l0.048-0.040c0.072-0.056 0.168-0.128 0.272-0.2l0.488-0.352 0.032-0.016c0.064 0.008 0.336 0.048 0.592 0.088l0.096 0.016c0.112 0.016 0.216 0.040 0.304 0.056l0.072 0.016-0.696 0.44-0.128 0.088c-0.064-0.008-0.32-0.040-0.584-0.064l-0.064-0.008c-0.056-0.008-0.112-0.016-0.168-0.016l-0.264-0.008zM9.128 26.952l0.048 0.032c0.064 0.048 0.152 0.096 0.24 0.144l0.096 0.056c0.048 0.032 0.096 0.056 0.136 0.080 0.072 0.040 0.144 0.080 0.2 0.112l0.136 0.072c0.024 0.056 0.112 0.304 0.216 0.544 0.080 0.168 0.16 0.344 0.208 0.448l-0.056-0.024c-0.040-0.016-0.080-0.040-0.12-0.056-0.080-0.040-0.168-0.072-0.248-0.12l-0.48-0.248c-0.016-0.008-0.024-0.016-0.032-0.016-0.024-0.064-0.12-0.312-0.2-0.56l-0.072-0.208-0.072-0.256zM9.16 27.784l-0.216-0.128c-0.032-0.024-0.072-0.048-0.112-0.072-0.016-0.008-0.040-0.024-0.064-0.040l-0.344-0.216c-0.048-0.024-0.088-0.056-0.112-0.072l-0.032-0.016c-0.016-0.064-0.088-0.328-0.144-0.576-0.024-0.104-0.048-0.216-0.064-0.312-0.008-0.040-0.008-0.072-0.016-0.096l-0.016-0.072 0.184 0.144c0.032 0.032 0.064 0.056 0.104 0.080 0.024 0.008 0.040 0.024 0.064 0.040l0.312 0.224c0.040 0.032 0.080 0.056 0.104 0.072l0.024 0.016c0.016 0.072 0.088 0.32 0.16 0.568 0.032 0.112 0.072 0.216 0.112 0.296l0.056 0.16zM10.656 3.248l-0.8 0.896-1.216 0.128 0.8-0.896 1.216-0.128zM7.528 4.656c0.008-0.056 0.024-0.104 0.040-0.16l0.016-0.064c0.064-0.264 0.152-0.536 0.168-0.6l0.144-0.104 0.736-0.448 0.064-0.032-0.024 0.064c-0.040 0.088-0.080 0.2-0.12 0.32l-0.032 0.096c-0.088 0.256-0.168 0.512-0.192 0.576l-0.528 0.376c-0.104 0.072-0.208 0.144-0.28 0.208l-0.048 0.040 0.056-0.272zM6.448 5.36c0.024-0.12 0.048-0.24 0.064-0.344l0.056-0.264 0.28-0.248 0.584-0.44c-0.032 0.12-0.080 0.312-0.128 0.496-0.032 0.16-0.072 0.312-0.096 0.424l-0.032 0.176-0.44 0.376c-0.072 0.064-0.144 0.128-0.208 0.192-0.040 0.032-0.064 0.064-0.096 0.088l-0.048 0.048c0.016-0.12 0.040-0.312 0.064-0.504zM6.304 6.312c0.072 0 0.344-0.024 0.6-0.032h0.096c0.112-0.008 0.224-0.008 0.312-0.008l0.072-0.008-0.6 0.568-0.104 0.112c-0.064 0.008-0.32 0.024-0.584 0.056l-0.064 0.008c-0.056 0.008-0.112 0.016-0.168 0.024l-0.264 0.040 0.040-0.048c0.056-0.072 0.136-0.16 0.224-0.248l0.416-0.44 0.024-0.024zM6.864 26.136l-0.048-0.040c-0.048-0.048-0.112-0.104-0.176-0.168-0.032-0.040-0.072-0.072-0.112-0.112l-0.072-0.064c-0.080-0.080-0.16-0.152-0.216-0.216l-0.112-0.12-0.008-0.216c0-0.104-0.008-0.24-0.008-0.376-0.008-0.192 0-0.376 0-0.488l0.288 0.32 0.368 0.392c0 0.032 0 0.096 0.008 0.176 0.008 0.112 0.016 0.264 0.032 0.416 0.016 0.192 0.040 0.376 0.056 0.496zM5.408 6.632c0-0.056 0.008-0.112 0.008-0.168v-0.064c0.016-0.272 0.040-0.56 0.048-0.624l0.12-0.128 0.632-0.6 0.056-0.048-0.016 0.072c-0.016 0.088-0.032 0.208-0.048 0.336l-0.016 0.104c-0.040 0.272-0.064 0.544-0.072 0.608l-0.44 0.472c-0.088 0.096-0.176 0.184-0.232 0.264l-0.040 0.048v-0.272zM5.36 7.368c0.064-0.008 0.328-0.056 0.584-0.096 0.104-0.016 0.216-0.032 0.312-0.040 0.040 0 0.072-0.008 0.104-0.008l0.072-0.008-0.16 0.176c-0.024 0.024-0.048 0.064-0.080 0.096l-0.392 0.472-0.168 0.032c-0.112 0.024-0.256 0.056-0.408 0.088s-0.304 0.064-0.416 0.096c-0.024 0-0.048 0.008-0.072 0.016 0.016-0.016 0.024-0.032 0.040-0.048l0.24-0.328c0.032-0.040 0.064-0.088 0.096-0.128 0.056-0.072 0.104-0.144 0.144-0.192l0.104-0.128zM5.872 25.080c0 0.024 0 0.048 0 0.072-0.008-0.016-0.024-0.032-0.040-0.048l-0.264-0.304c-0.096-0.104-0.176-0.208-0.256-0.312l-0.104-0.136 0.008-0.176c0-0.112 0.016-0.272 0.032-0.416 0.008-0.152 0.024-0.296 0.040-0.408l0.008-0.072 0.256 0.36c0.056 0.072 0.112 0.144 0.16 0.208 0.024 0.032 0.048 0.064 0.072 0.096l0.096 0.12-0.008 0.176c-0.008 0.112-0.008 0.264-0.008 0.416s0 0.304 0.008 0.424zM4.928 6.392c0.032-0.040 0.064-0.080 0.096-0.112l0.184-0.2-0.008 0.072c0 0.040-0.008 0.072-0.008 0.112-0.008 0.096-0.016 0.208-0.016 0.328-0.008 0.28-0.008 0.544-0.008 0.616l-0.112 0.128c-0.048 0.056-0.096 0.128-0.152 0.2-0.032 0.040-0.064 0.088-0.096 0.128l-0.24 0.328c-0.016 0.024-0.032 0.040-0.040 0.056 0-0.024-0.008-0.048-0.008-0.072-0.008-0.12-0.016-0.272-0.024-0.432s-0.016-0.32-0.016-0.44l-0.008-0.184 0.456-0.528zM4.456 8.64l0.088-0.144 0.232-0.064c0.096-0.024 0.216-0.064 0.336-0.088 0.176-0.040 0.36-0.080 0.472-0.104l-0.264 0.36-0.296 0.448c-0.064 0.016-0.32 0.088-0.56 0.176-0.176 0.064-0.352 0.128-0.464 0.168l0.232-0.408c0.056-0.088 0.112-0.176 0.168-0.264 0.024-0.024 0.040-0.056 0.056-0.080zM2.336 15.712l0.016-0.6c0.008-0.008 0.016-0.016 0.024-0.024l0.104-0.096c0.088-0.088 0.192-0.192 0.304-0.296s0.224-0.208 0.304-0.28c0.016-0.016 0.032-0.032 0.048-0.048-0.008 0.016-0.008 0.032-0.008 0.056l-0.032 0.384c-0.008 0.056-0.008 0.104-0.016 0.152-0.008 0.080-0.016 0.168-0.016 0.232l-0.008 0.16c-0.048 0.056-0.224 0.24-0.4 0.432-0.112 0.12-0.216 0.24-0.28 0.32l-0.048 0.056v-0.064c-0.008-0.104 0-0.24 0.008-0.384zM3.776 10.744l0.080-0.040c0.112-0.048 0.216-0.104 0.296-0.136l0.064-0.024-0.32 0.76-0.048 0.144c-0.056 0.032-0.288 0.16-0.512 0.288l-0.2 0.112-0.224 0.144 0.016-0.064c0.024-0.080 0.056-0.168 0.080-0.256 0.016-0.040 0.024-0.080 0.040-0.12l0.152-0.432c0.008-0.032 0.016-0.056 0.024-0.072l0.016-0.032c0.064-0.032 0.304-0.16 0.536-0.272zM3.392 10.656l0.024-0.056c0.016-0.040 0.032-0.080 0.048-0.12 0.032-0.072 0.072-0.16 0.112-0.248l0.248-0.52 0.16-0.064c0.112-0.040 0.256-0.096 0.4-0.144 0.176-0.064 0.352-0.128 0.456-0.16l-0.256 0.448c-0.024 0.040-0.040 0.072-0.064 0.112l-0.144 0.304-0.24 0.096c-0.088 0.040-0.2 0.088-0.304 0.136-0.168 0.080-0.336 0.16-0.44 0.216zM3.328 12.016c0.088-0.056 0.184-0.112 0.272-0.16 0.024-0.016 0.056-0.032 0.080-0.048l0.064-0.032-0.080 0.224c-0.016 0.040-0.032 0.088-0.040 0.128-0.008 0.024-0.016 0.048-0.024 0.072l-0.144 0.52c-0.024 0.016-0.080 0.048-0.144 0.096-0.096 0.064-0.216 0.152-0.336 0.24s-0.24 0.184-0.336 0.256c-0.016 0.016-0.040 0.032-0.056 0.048l0.096-0.456c0.008-0.040 0.016-0.088 0.024-0.128 0.016-0.104 0.040-0.192 0.080-0.272l0.048-0.16c0.056-0.040 0.28-0.192 0.496-0.328zM2.744 13.528l0.232-0.176c0.152-0.112 0.296-0.224 0.392-0.288l-0.096 0.432c-0.024 0.088-0.040 0.176-0.048 0.256 0 0.040-0.008 0.080-0.016 0.12l-0.024 0.152-0.28 0.24c-0.040 0.032-0.080 0.064-0.12 0.104l-0.048 0.040c-0.128 0.128-0.264 0.264-0.352 0.344l0.040-0.464c0.016-0.096 0.024-0.192 0.048-0.272 0-0.048 0.008-0.088 0.016-0.128l0.024-0.168 0.232-0.192zM2.336 16.56v-0.032c0.040-0.056 0.208-0.264 0.376-0.464 0.064-0.080 0.144-0.16 0.208-0.232 0.032-0.024 0.048-0.048 0.072-0.072l0.048-0.048-0.008 0.24 0.016 0.584c0 0.072 0.008 0.136 0.008 0.16-0.040 0.048-0.2 0.256-0.352 0.464-0.088 0.12-0.168 0.232-0.24 0.344l-0.040 0.064-0.008-0.064c-0.016-0.112-0.032-0.256-0.040-0.4l-0.032-0.408c-0.008-0.040-0.008-0.072-0.008-0.096 0-0.016 0-0.032 0-0.040zM2.792 17.408c0.064-0.088 0.128-0.184 0.192-0.264l0.096-0.12 0.016 0.24 0.072 0.584c0 0.040 0.008 0.088 0.016 0.128l0.008 0.032c-0.032 0.064-0.168 0.28-0.304 0.504-0.064 0.104-0.112 0.208-0.16 0.296l-0.072 0.144-0.056-0.24-0.112-0.648c-0.008-0.048-0.016-0.096-0.016-0.128l-0.008-0.032c0.040-0.056 0.184-0.28 0.328-0.496zM3.024 18.8c0.072-0.128 0.144-0.256 0.208-0.36l0.040-0.064 0.008 0.056c0.016 0.104 0.048 0.24 0.080 0.376l0.088 0.376c0.016 0.072 0.032 0.128 0.040 0.152-0.032 0.056-0.144 0.288-0.256 0.528-0.056 0.112-0.096 0.224-0.136 0.32l-0.056 0.136-0.040-0.112c-0.032-0.096-0.072-0.208-0.104-0.328l-0.112-0.392c-0.024-0.072-0.032-0.136-0.040-0.16 0.032-0.056 0.16-0.304 0.28-0.528zM3.376 20.112c0.064-0.144 0.12-0.28 0.168-0.376l0.032-0.064 0.016 0.056c0.016 0.072 0.040 0.152 0.072 0.232 0.016 0.040 0.032 0.088 0.048 0.136s0.032 0.096 0.048 0.144c0.032 0.080 0.056 0.152 0.080 0.216l0.056 0.144c-0.024 0.064-0.12 0.304-0.2 0.552-0.056 0.176-0.112 0.36-0.144 0.472l-0.024-0.056c-0.016-0.032-0.032-0.072-0.056-0.112-0.040-0.080-0.080-0.168-0.112-0.256l-0.208-0.536c0.024-0.064 0.128-0.312 0.224-0.552zM3.744 21.776c0.032-0.112 0.080-0.256 0.12-0.4l0.032-0.096c0.032-0.112 0.064-0.216 0.096-0.296l0.024-0.064 0.024 0.056c0.032 0.064 0.064 0.128 0.096 0.208 0.024 0.048 0.040 0.096 0.064 0.144l0.040 0.096c0.040 0.096 0.080 0.184 0.12 0.256l0.072 0.136-0.056 0.224c-0.024 0.104-0.056 0.232-0.080 0.352-0.032 0.184-0.072 0.368-0.104 0.464l-0.232-0.4-0.264-0.512c0.008-0.024 0.024-0.088 0.048-0.168zM4.416 23.040c0.024-0.104 0.048-0.256 0.080-0.416 0.024-0.144 0.056-0.296 0.080-0.4 0.008-0.032 0.008-0.048 0.016-0.072 0.008 0.016 0.024 0.032 0.032 0.048l0.224 0.392c0.016 0.040 0.040 0.072 0.064 0.112l0.184 0.28-0.024 0.168c-0.016 0.096-0.032 0.232-0.040 0.424-0.016 0.144-0.032 0.304-0.040 0.416-0.008 0.024-0.008 0.048-0.008 0.072l-0.272-0.384c-0.056-0.080-0.104-0.16-0.152-0.232-0.032-0.040-0.048-0.072-0.072-0.104l-0.088-0.144 0.016-0.16zM3.936 7.64l0.296-0.408c0.008 0.128 0.016 0.32 0.024 0.512 0.008 0.128 0.024 0.264 0.032 0.368l0.024 0.248-0.096 0.144c-0.016 0.024-0.040 0.048-0.056 0.080-0.048 0.080-0.112 0.168-0.16 0.264l-0.232 0.416c-0.024-0.112-0.056-0.304-0.088-0.496-0.048-0.272-0.072-0.552-0.080-0.616l0.336-0.512zM3.032 9.136c0.024-0.040 0.048-0.088 0.072-0.128l0.288-0.512c0.016 0.12 0.048 0.312 0.080 0.504 0.032 0.152 0.056 0.312 0.080 0.424l0.040 0.176-0.256 0.52c-0.040 0.088-0.080 0.184-0.112 0.264-0.016 0.048-0.032 0.088-0.048 0.12l-0.024 0.056c-0.040-0.112-0.088-0.296-0.144-0.488-0.032-0.112-0.056-0.224-0.080-0.328l-0.064-0.264 0.168-0.344zM2.328 10.688l0.328-0.8 0.032-0.064 0.016 0.072c0.024 0.096 0.056 0.216 0.096 0.344l0.024 0.080c0.072 0.264 0.152 0.52 0.176 0.584l-0.016 0.032c-0.008 0.016-0.016 0.040-0.024 0.072l-0.152 0.44c-0.016 0.040-0.024 0.080-0.040 0.12-0.032 0.096-0.072 0.192-0.088 0.272l-0.016 0.064-0.112-0.256-0.080-0.208c-0.096-0.248-0.184-0.52-0.208-0.584l0.064-0.168zM1.984 11.712c0.008-0.024 0.016-0.056 0.024-0.080 0.008-0.048 0.024-0.096 0.040-0.144l0.088-0.256 0.024 0.072c0.008 0.024 0.016 0.056 0.032 0.096 0.032 0.096 0.072 0.2 0.12 0.312 0.112 0.256 0.224 0.504 0.248 0.568l-0.048 0.16c-0.024 0.080-0.040 0.176-0.064 0.28-0.008 0.040-0.016 0.088-0.024 0.128l-0.088 0.4-0.016 0.064c-0.008-0.016-0.024-0.040-0.032-0.064-0.056-0.104-0.128-0.24-0.2-0.384-0.072-0.136-0.136-0.28-0.192-0.392-0.040-0.080-0.072-0.144-0.080-0.168l0.168-0.592zM1.552 13.6c0.008-0.040 0.016-0.088 0.024-0.136 0.008-0.096 0.024-0.192 0.048-0.296l0.104-0.488c0.048 0.112 0.136 0.288 0.224 0.456l0.104 0.208 0.192 0.336-0.024 0.168c0 0.032-0.008 0.072-0.016 0.12-0.008 0.088-0.024 0.192-0.040 0.288l-0.048 0.472c-0.064-0.096-0.176-0.256-0.28-0.416l-0.040-0.056c-0.032-0.048-0.064-0.096-0.088-0.144l-0.184-0.336 0.024-0.176zM1.376 15.104c0-0.080 0.008-0.168 0.008-0.256 0.008-0.056 0.008-0.112 0.016-0.168l0.040-0.432c0-0.024 0.008-0.040 0.008-0.064 0.008 0.024 0.024 0.040 0.040 0.064 0.064 0.104 0.152 0.232 0.24 0.368s0.184 0.264 0.248 0.36l0.080 0.112c0.008 0.016 0.016 0.024 0.024 0.032l-0.016 0.6c0 0.144-0.008 0.288 0 0.392v0.064l-0.048-0.056c-0.072-0.088-0.176-0.208-0.272-0.336-0.168-0.216-0.336-0.44-0.376-0.496l0.008-0.184zM1.36 16.616l-0.008-0.664 0.008-0.272 0.048 0.056c0.016 0.024 0.040 0.056 0.064 0.088 0.056 0.080 0.12 0.168 0.2 0.256 0.176 0.208 0.352 0.416 0.4 0.464v0.040c0 0.016 0 0.024 0 0.040 0 0.024 0.008 0.056 0.008 0.096l0.032 0.408c0.008 0.144 0.024 0.296 0.040 0.408l0.008 0.064-0.064-0.048c-0.080-0.072-0.192-0.184-0.304-0.304-0.184-0.2-0.376-0.408-0.424-0.456 0-0.024-0.008-0.088-0.008-0.176zM1.528 18.256c-0.008-0.048-0.016-0.096-0.024-0.144l-0.080-0.656-0.024-0.272 0.112 0.12c0.072 0.080 0.152 0.16 0.24 0.248 0.2 0.192 0.4 0.376 0.448 0.424l0.008 0.032c0.008 0.032 0.016 0.080 0.024 0.136l0.112 0.624 0.056 0.248-0.128-0.096c-0.080-0.064-0.176-0.136-0.264-0.216-0.208-0.176-0.424-0.36-0.472-0.408l-0.008-0.040zM1.8 19.6l-0.104-0.416c-0.032-0.144-0.072-0.304-0.088-0.424l-0.016-0.072 0.056 0.048c0.096 0.088 0.216 0.184 0.336 0.28 0.216 0.176 0.432 0.336 0.488 0.376 0.008 0.032 0.024 0.088 0.048 0.168l0.112 0.392c0.032 0.12 0.072 0.24 0.104 0.336l0.040 0.12-0.128-0.080c-0.088-0.056-0.192-0.12-0.296-0.192-0.224-0.152-0.448-0.32-0.504-0.36-0.008-0.032-0.024-0.096-0.048-0.176zM2.256 21.040c-0.032-0.072-0.056-0.16-0.088-0.256-0.024-0.048-0.040-0.104-0.056-0.152-0.064-0.184-0.12-0.36-0.152-0.48l0.056 0.040c0.088 0.072 0.224 0.152 0.368 0.248 0.232 0.144 0.464 0.288 0.52 0.32l0.216 0.544c0.032 0.096 0.072 0.184 0.112 0.264 0.024 0.040 0.040 0.080 0.056 0.112l0.024 0.056c-0.112-0.048-0.28-0.136-0.456-0.224-0.232-0.128-0.48-0.272-0.536-0.304l-0.064-0.168zM2.84 22.424c-0.040-0.080-0.088-0.184-0.136-0.296l-0.104-0.24c-0.040-0.096-0.080-0.184-0.112-0.256l-0.024-0.064 0.064 0.040c0.088 0.048 0.192 0.104 0.304 0.16l0.088 0.048c0.136 0.072 0.28 0.144 0.384 0.192 0.080 0.032 0.144 0.064 0.168 0.072l0.264 0.52 0.24 0.416c-0.112-0.040-0.296-0.112-0.488-0.184-0.128-0.048-0.248-0.104-0.344-0.144l-0.224-0.104-0.080-0.16zM3.68 23.888l-0.208-0.32c-0.024-0.040-0.048-0.080-0.072-0.128l-0.256-0.448c-0.008-0.016-0.024-0.040-0.032-0.056 0.024 0.008 0.048 0.024 0.072 0.032 0.112 0.040 0.256 0.104 0.408 0.16 0.168 0.064 0.304 0.112 0.408 0.152l0.16 0.056 0.096 0.144c0.024 0.032 0.048 0.064 0.072 0.104 0.048 0.080 0.104 0.16 0.16 0.24l0.28 0.392c-0.024 0-0.048-0.008-0.072-0.016-0.112-0.032-0.264-0.072-0.416-0.112-0.176-0.048-0.32-0.096-0.416-0.128l-0.184-0.072zM4.568 25.12l-0.112-0.144c-0.024-0.032-0.048-0.064-0.080-0.104-0.056-0.072-0.12-0.152-0.192-0.248l-0.288-0.408 0.072 0.024c0.12 0.032 0.272 0.080 0.424 0.12 0.16 0.040 0.304 0.080 0.424 0.104l0.176 0.040 0.104 0.136c0.080 0.104 0.168 0.216 0.264 0.32l0.272 0.312c0.016 0.016 0.024 0.032 0.040 0.048-0.024 0-0.048-0.008-0.072-0.008-0.112-0.016-0.272-0.048-0.424-0.072-0.16-0.024-0.32-0.056-0.432-0.080l-0.176-0.040zM5.576 26.256l-0.416-0.432-0.328-0.376c0.12 0.016 0.32 0.056 0.504 0.088 0.136 0.024 0.28 0.040 0.392 0.056l0.216 0.024 0.12 0.12c0.056 0.064 0.136 0.144 0.224 0.224l0.072 0.064c0.040 0.040 0.072 0.080 0.112 0.112 0.064 0.064 0.128 0.128 0.184 0.176l0.048 0.040c-0.12-0.008-0.312-0.016-0.504-0.032-0.16-0.016-0.32-0.032-0.44-0.040-0.088-0.008-0.16-0.024-0.184-0.024zM6.656 27.248l-0.432-0.376c-0.072-0.064-0.152-0.136-0.216-0.2-0.032-0.040-0.064-0.072-0.096-0.096l-0.048-0.048c0.128 0.008 0.32 0.024 0.512 0.040 0.28 0.008 0.544 0.016 0.616 0.016l0.128 0.112c0.056 0.048 0.128 0.104 0.2 0.16 0.040 0.032 0.080 0.064 0.12 0.096l0.072 0.056c0.096 0.072 0.184 0.144 0.256 0.192l0.048 0.040-0.272 0.016-0.232 0.008c-0.272 0.008-0.56 0.008-0.624 0.008-0.008-0.008-0.024-0.016-0.032-0.024zM7.872 28.152c-0.032-0.016-0.072-0.048-0.12-0.080l-0.352-0.248c-0.024-0.016-0.048-0.032-0.072-0.048-0.040-0.032-0.080-0.056-0.12-0.088l-0.216-0.168h0.072c0.032 0 0.064 0 0.104 0 0.104 0 0.216 0 0.336-0.008 0.28-0.016 0.552-0.032 0.616-0.040l0.032 0.016c0.024 0.024 0.064 0.048 0.112 0.080l0.344 0.224c0.024 0.008 0.040 0.024 0.064 0.040 0.040 0.024 0.080 0.048 0.12 0.072l0.224 0.128-0.072 0.016c-0.032 0.008-0.064 0.008-0.096 0.016-0.096 0.016-0.216 0.032-0.328 0.048-0.264 0.032-0.552 0.056-0.616 0.064l-0.032-0.024zM9.040 28.856c-0.072-0.040-0.152-0.088-0.24-0.136-0.040-0.024-0.088-0.056-0.136-0.080l-0.096-0.056c-0.104-0.056-0.2-0.112-0.28-0.16l-0.056-0.040 0.28-0.032 0.232-0.032c0.272-0.040 0.536-0.088 0.6-0.104 0.008 0 0.016 0.008 0.032 0.016l0.488 0.248c0.088 0.048 0.176 0.088 0.256 0.12 0.048 0.024 0.088 0.040 0.12 0.056l0.056 0.024c-0.112 0.032-0.296 0.080-0.488 0.128-0.264 0.064-0.544 0.112-0.608 0.128l-0.16-0.080zM11.168 29.376c-0.112 0.048-0.224 0.080-0.336 0.096-0.032 0.016-0.056 0.024-0.088 0.032l-0.176 0.056-0.168-0.064c-0.080-0.032-0.168-0.072-0.272-0.12-0.040-0.016-0.080-0.040-0.12-0.056-0.048-0.024-0.096-0.040-0.144-0.064-0.096-0.040-0.176-0.080-0.248-0.112l-0.064-0.032c0.128-0.024 0.312-0.072 0.504-0.12 0.152-0.040 0.304-0.080 0.416-0.112 0.088-0.016 0.152-0.040 0.176-0.048l0.544 0.216 0.448 0.152c-0.112 0.040-0.288 0.112-0.472 0.176zM11.28 28.8l-0.528-0.208c-0.016-0.032-0.048-0.080-0.080-0.16-0.048-0.104-0.112-0.248-0.176-0.384-0.080-0.16-0.152-0.336-0.192-0.44l0.048 0.024c0.056 0.032 0.128 0.064 0.208 0.096 0.048 0.024 0.096 0.040 0.144 0.064 0.040 0.016 0.072 0.032 0.112 0.048 0.088 0.040 0.168 0.080 0.24 0.104l0.144 0.056 0.112 0.24c0.048 0.088 0.104 0.192 0.16 0.288 0.088 0.16 0.184 0.32 0.248 0.424l-0.44-0.152zM13.024 20.672c0 0.352-0.288 0.64-0.64 0.64 0 0 0 0-0.032 0h-1.152v3.488h-0.96v-7.648h2.144c0.352 0 0.64 0.288 0.64 0.64v2.88zM13.344 16.192h-0.992v-6.688h-0.864v-0.992h2.72v0.992h-0.864v6.688zM14.688 24.8h-0.992v-7.648h0.992v7.648zM15.328 16.192h-0.992l0.8-7.648h1.76l0.8 7.648h-0.96l-0.16-1.504h-1.088l-0.16 1.504zM18.336 19.456c0 0-0.992 0-0.992 0v-1.312h-0.832v5.696h0.832v-1.312h0.992v1.664c0 0.352-0.288 0.64-0.672 0.64h-1.504c-0.352 0-0.64-0.288-0.64-0.64v-6.368c0.032-0.352 0.288-0.608 0.64-0.64h1.504c0.352 0 0.64 0.288 0.672 0.64v1.632zM20.064 24.8h-0.992v-7.648h0.992v2.88l0.768-2.88h1.024l-1.056 3.552 1.184 4.096h-1.024l-0.896-3.36v3.36zM20.52 28.52c0.064-0.096 0.112-0.2 0.16-0.288l0.12-0.232 0.152-0.056c0.072-0.024 0.152-0.064 0.24-0.104 0.040-0.016 0.072-0.032 0.112-0.048 0.040-0.024 0.088-0.040 0.136-0.064 0.080-0.032 0.152-0.064 0.2-0.104l0.048-0.024c-0.040 0.104-0.112 0.272-0.192 0.44-0.064 0.144-0.128 0.28-0.176 0.384-0.040 0.080-0.064 0.136-0.080 0.16l-0.528 0.208-0.44 0.152c0.064-0.104 0.16-0.264 0.248-0.424zM22.384 29.152c-0.072 0.032-0.16 0.072-0.248 0.112-0.048 0.016-0.096 0.040-0.144 0.064-0.040 0.016-0.080 0.040-0.12 0.056-0.104 0.048-0.2 0.088-0.288 0.128l-0.168 0.064-0.176-0.056c-0.032-0.016-0.064-0.024-0.096-0.032-0.096-0.024-0.208-0.064-0.32-0.104-0.184-0.064-0.36-0.136-0.472-0.176l0.456-0.152 0.544-0.216c0.032 0.008 0.096 0.024 0.176 0.048 0.112 0.032 0.264 0.072 0.416 0.112 0.192 0.048 0.384 0.096 0.504 0.12l-0.064 0.032zM23.704 28.416c-0.072 0.056-0.168 0.112-0.272 0.168l-0.096 0.056c-0.048 0.024-0.088 0.056-0.136 0.080-0.088 0.048-0.176 0.096-0.24 0.136l-0.16 0.080c-0.072-0.008-0.344-0.064-0.592-0.136-0.184-0.048-0.376-0.096-0.488-0.128l0.056-0.024c0.032-0.024 0.072-0.040 0.112-0.056 0.080-0.032 0.168-0.072 0.256-0.12l0.488-0.248c0.016-0.008 0.024-0.008 0.032-0.016 0.064 0.016 0.328 0.064 0.6 0.104l0.232 0.032 0.272 0.032-0.064 0.040zM24.792 27.68c-0.040 0.032-0.080 0.056-0.12 0.088-0.024 0.016-0.048 0.032-0.072 0.048l-0.352 0.248c-0.048 0.032-0.088 0.064-0.12 0.080l-0.032 0.024c-0.064-0.008-0.344-0.032-0.608-0.056-0.112-0.008-0.224-0.032-0.328-0.048-0.032-0.008-0.064-0.008-0.096-0.016l-0.072-0.016 0.224-0.128c0.040-0.016 0.080-0.048 0.12-0.072 0.016-0.008 0.040-0.024 0.064-0.040l0.344-0.224c0.040-0.024 0.072-0.056 0.112-0.080l0.032-0.024c0.064 0 0.336 0.024 0.608 0.040 0.12 0.008 0.232 0.008 0.336 0.008 0.040 0 0.072 0 0.104 0h0.072l-0.216 0.168zM26.088 26.576c-0.032 0.032-0.064 0.064-0.096 0.096-0.064 0.064-0.136 0.136-0.216 0.2l-0.44 0.376c-0.008 0.008-0.016 0.016-0.024 0.024-0.064 0-0.352 0-0.624-0.008l-0.184-0.008-0.32-0.016 0.048-0.040c0.072-0.048 0.16-0.12 0.256-0.192l0.072-0.056c0.040-0.032 0.080-0.064 0.12-0.096 0.072-0.056 0.144-0.112 0.2-0.16l0.128-0.112c0.072 0 0.344 0 0.616-0.016 0.192-0.008 0.392-0.032 0.512-0.040l-0.048 0.048zM26.848 25.808l-0.416 0.432c-0.032 0.008-0.096 0.016-0.184 0.024-0.12 0.016-0.28 0.024-0.44 0.040-0.192 0.024-0.384 0.032-0.504 0.032l0.048-0.040c0.056-0.048 0.12-0.112 0.184-0.176 0.032-0.040 0.072-0.072 0.112-0.112l0.072-0.064c0.088-0.080 0.168-0.16 0.224-0.224l0.12-0.12 0.216-0.024c0.112-0.016 0.256-0.032 0.392-0.056 0.192-0.032 0.384-0.064 0.504-0.088l-0.328 0.376zM27.8 24.632c-0.056 0.088-0.12 0.168-0.176 0.24-0.032 0.040-0.056 0.080-0.096 0.112l-0.112 0.144-0.176 0.040c-0.12 0.024-0.272 0.048-0.432 0.080s-0.312 0.056-0.424 0.072c-0.024 0-0.048 0.008-0.072 0.008 0.008-0.016 0.024-0.032 0.040-0.048l0.272-0.312c0.096-0.104 0.184-0.216 0.264-0.32l0.104-0.136 0.176-0.040c0.12-0.024 0.272-0.064 0.424-0.104s0.304-0.088 0.424-0.12l0.072-0.024-0.288 0.408zM28.84 23.008l-0.256 0.448c-0.024 0.048-0.048 0.088-0.072 0.128l-0.208 0.32-0.176 0.056c-0.096 0.032-0.232 0.080-0.416 0.128-0.152 0.040-0.304 0.080-0.416 0.112-0.024 0.008-0.048 0.008-0.072 0.016l0.272-0.384c0.064-0.080 0.112-0.168 0.16-0.24 0.024-0.040 0.048-0.080 0.072-0.112l0.096-0.144 0.176-0.056c0.104-0.040 0.248-0.088 0.408-0.152 0.144-0.056 0.296-0.112 0.408-0.16 0.032-0.016 0.048-0.024 0.072-0.032-0.016 0.024-0.024 0.040-0.048 0.072zM29.512 21.64c-0.032 0.072-0.072 0.16-0.128 0.256l-0.112 0.248c-0.048 0.112-0.096 0.216-0.136 0.296l-0.080 0.16-0.224 0.104c-0.096 0.040-0.216 0.096-0.344 0.144-0.184 0.072-0.36 0.136-0.472 0.176l0.24-0.416 0.264-0.52c0.032-0.008 0.088-0.032 0.168-0.072 0.112-0.048 0.248-0.12 0.392-0.192l0.088-0.048c0.12-0.056 0.224-0.112 0.304-0.16l0.064-0.040-0.024 0.064zM29.888 20.632c-0.024 0.048-0.040 0.104-0.056 0.152-0.032 0.096-0.064 0.184-0.088 0.256l-0.064 0.168c-0.056 0.032-0.296 0.176-0.536 0.304-0.176 0.088-0.352 0.168-0.456 0.224l0.024-0.056c0.016-0.032 0.040-0.072 0.056-0.112 0.032-0.080 0.080-0.168 0.112-0.264l0.216-0.544c0.056-0.032 0.288-0.168 0.52-0.32 0.144-0.096 0.28-0.184 0.368-0.248l0.056-0.040c-0.032 0.12-0.088 0.304-0.152 0.48zM30.376 18.744c-0.016 0.12-0.056 0.28-0.088 0.424l-0.096 0.424c-0.024 0.088-0.040 0.152-0.048 0.176-0.056 0.040-0.28 0.208-0.504 0.36-0.104 0.072-0.216 0.136-0.304 0.192l-0.128 0.080 0.040-0.12c0.032-0.096 0.072-0.216 0.104-0.336l0.112-0.392c0.024-0.080 0.040-0.144 0.048-0.168 0.056-0.048 0.272-0.208 0.488-0.376 0.12-0.096 0.24-0.192 0.336-0.28l0.056-0.048-0.016 0.064zM30.568 17.448l-0.080 0.664c-0.008 0.040-0.016 0.088-0.024 0.136l-0.008 0.040c-0.056 0.040-0.264 0.232-0.472 0.408-0.088 0.080-0.184 0.152-0.264 0.216l-0.128 0.096 0.056-0.248 0.112-0.616c0.016-0.056 0.016-0.096 0.024-0.136l0.008-0.032c0.056-0.048 0.248-0.232 0.448-0.424 0.088-0.080 0.176-0.168 0.24-0.256l0.112-0.12-0.024 0.272zM30.624 16.792c-0.040 0.048-0.232 0.256-0.424 0.456-0.096 0.112-0.208 0.216-0.304 0.304l-0.056 0.048 0.016-0.072c0.016-0.112 0.032-0.264 0.040-0.408l0.032-0.408c0.008-0.040 0.008-0.072 0.008-0.104 0-0.016 0-0.032 0-0.040v-0.032c0.048-0.048 0.224-0.256 0.4-0.464 0.080-0.088 0.152-0.176 0.208-0.256 0.024-0.032 0.040-0.064 0.064-0.088l0.040-0.056 0.008 0.272-0.024 0.672c0 0.080-0.008 0.152-0.008 0.176z"></path>
<path d="M18.064 2.384c0.008-0.072-0.024-0.112-0.088-0.112-0.088 0-0.168 0.056-0.256 0.168s-0.136 0.224-0.136 0.328c0 0 0 0.016 0 0.056 0.136-0.048 0.256-0.12 0.352-0.224 0.080-0.088 0.128-0.16 0.128-0.216z"></path>
</symbol>
<symbol id="icon-vimeo" viewBox="0 0 32 32">
<path d="M31.988 8.563c-0.144 3.113-2.319 7.381-6.525 12.794-4.35 5.65-8.031 8.481-11.044 8.481-1.863 0-3.444-1.719-4.731-5.163-0.863-3.156-1.719-6.313-2.581-9.469-0.956-3.444-1.981-5.162-3.081-5.162-0.237 0-1.075 0.506-2.513 1.506l-1.506-1.938c1.581-1.387 3.138-2.775 4.669-4.162 2.106-1.819 3.688-2.775 4.744-2.875 2.487-0.237 4.025 1.463 4.6 5.106 0.619 3.931 1.050 6.375 1.294 7.331 0.719 3.263 1.506 4.894 2.369 4.894 0.669 0 1.675-1.056 3.019-3.175 1.337-2.113 2.056-3.725 2.156-4.831 0.194-1.825-0.525-2.744-2.156-2.744-0.769 0-1.556 0.175-2.369 0.525 1.575-5.15 4.575-7.65 9.012-7.506 3.281 0.087 4.831 2.219 4.644 6.388z"></path>
</symbol>
<symbol id="icon-instagram" viewBox="0 0 32 32">
<path d="M16 2.881c4.275 0 4.781 0.019 6.462 0.094 1.563 0.069 2.406 0.331 2.969 0.55 0.744 0.288 1.281 0.638 1.837 1.194 0.563 0.563 0.906 1.094 1.2 1.838 0.219 0.563 0.481 1.412 0.55 2.969 0.075 1.688 0.094 2.194 0.094 6.463s-0.019 4.781-0.094 6.463c-0.069 1.563-0.331 2.406-0.55 2.969-0.288 0.744-0.637 1.281-1.194 1.837-0.563 0.563-1.094 0.906-1.837 1.2-0.563 0.219-1.413 0.481-2.969 0.55-1.688 0.075-2.194 0.094-6.463 0.094s-4.781-0.019-6.463-0.094c-1.563-0.069-2.406-0.331-2.969-0.55-0.744-0.288-1.281-0.637-1.838-1.194-0.563-0.563-0.906-1.094-1.2-1.837-0.219-0.563-0.481-1.413-0.55-2.969-0.075-1.688-0.094-2.194-0.094-6.463s0.019-4.781 0.094-6.463c0.069-1.563 0.331-2.406 0.55-2.969 0.288-0.744 0.638-1.281 1.194-1.838 0.563-0.563 1.094-0.906 1.838-1.2 0.563-0.219 1.412-0.481 2.969-0.55 1.681-0.075 2.188-0.094 6.463-0.094zM16 0c-4.344 0-4.887 0.019-6.594 0.094-1.7 0.075-2.869 0.35-3.881 0.744-1.056 0.412-1.95 0.956-2.837 1.85-0.894 0.888-1.438 1.781-1.85 2.831-0.394 1.019-0.669 2.181-0.744 3.881-0.075 1.713-0.094 2.256-0.094 6.6s0.019 4.887 0.094 6.594c0.075 1.7 0.35 2.869 0.744 3.881 0.413 1.056 0.956 1.95 1.85 2.837 0.887 0.887 1.781 1.438 2.831 1.844 1.019 0.394 2.181 0.669 3.881 0.744 1.706 0.075 2.25 0.094 6.594 0.094s4.888-0.019 6.594-0.094c1.7-0.075 2.869-0.35 3.881-0.744 1.050-0.406 1.944-0.956 2.831-1.844s1.438-1.781 1.844-2.831c0.394-1.019 0.669-2.181 0.744-3.881 0.075-1.706 0.094-2.25 0.094-6.594s-0.019-4.887-0.094-6.594c-0.075-1.7-0.35-2.869-0.744-3.881-0.394-1.063-0.938-1.956-1.831-2.844-0.887-0.887-1.781-1.438-2.831-1.844-1.019-0.394-2.181-0.669-3.881-0.744-1.712-0.081-2.256-0.1-6.6-0.1v0z"></path>
<path d="M16 7.781c-4.537 0-8.219 3.681-8.219 8.219s3.681 8.219 8.219 8.219 8.219-3.681 8.219-8.219c0-4.537-3.681-8.219-8.219-8.219zM16 21.331c-2.944 0-5.331-2.387-5.331-5.331s2.387-5.331 5.331-5.331c2.944 0 5.331 2.387 5.331 5.331s-2.387 5.331-5.331 5.331z"></path>
<path d="M26.462 7.456c0 1.060-0.859 1.919-1.919 1.919s-1.919-0.859-1.919-1.919c0-1.060 0.859-1.919 1.919-1.919s1.919 0.859 1.919 1.919z"></path>
</symbol>
<symbol id="icon-add" viewBox="0 0 24 24">
<path d="M18.984 12.984h-6v6h-1.969v-6h-6v-1.969h6v-6h1.969v6h6v1.969z"></path>
</symbol>
<symbol id="icon-arrow_back" viewBox="0 0 24 24">
<path d="M20.016 11.016v1.969h-12.188l5.578 5.625-1.406 1.406-8.016-8.016 8.016-8.016 1.406 1.406-5.578 5.625h12.188z"></path>
</symbol>
<symbol id="icon-arrow_forward" viewBox="0 0 24 24">
<path d="M12 3.984l8.016 8.016-8.016 8.016-1.406-1.406 5.578-5.625h-12.188v-1.969h12.188l-5.578-5.625z"></path>
</symbol>
</defs>
</svg>
